<svg xmlns="http://www.w3.org/2000/svg" viewBox="0 0 512.001 512.001" width="32" height="32"><path d="M495.455.094l-27.187 2.813c-33.974 3.515-64.809 24.014-83.967 51.944-5.488-12.296-13.97-25.298-26.847-38.174-5.854-5.854-15.355-5.857-21.212 0l-21.211 21.212c-39.254 39.254-40.961 101.742-5.118 142.991l-22.489 22.488c.009-20.791-6.448-51.049-36.03-80.631-5.858-5.858-15.354-5.858-21.212 0l-21.212 21.212c-39.152 39.152-40.855 101.784-5.117 142.984l-22.431 22.43c.023-26.709-10.637-55.115-36.088-80.566-5.857-5.858-15.353-5.858-21.212 0l-21.212 21.212c-39.151 39.151-40.855 101.78-5.121 142.981L4.393 486.382c-5.858 5.858-5.858 15.354 0 21.212 5.858 5.859 15.355 5.858 21.212.001l93.398-93.391c41.238 35.785 103.871 34.026 142.999-5.103l21.212-21.212c5.858-5.858 5.858-15.354 0-21.212-29.591-29.591-59.847-36.042-80.65-36.029l22.499-22.497c41.185 35.794 103.685 34.205 142.999-5.11l21.212-21.212c5.858-5.858 5.858-15.354 0-21.212-25.457-25.457-53.87-36.116-80.584-36.088l22.437-22.435c41.183 35.789 103.681 34.201 142.995-5.114l21.212-21.212c5.858-5.858 5.858-15.354 0-21.212-12.205-12.206-25.092-21.01-38.144-26.867 28.048-19.25 48.417-50.127 51.915-83.947l2.813-27.187c.979-9.464-7.007-17.439-16.463-16.461zM119.076 371.707c-24.082-29.428-22.401-73.036 5.047-100.484l9.918-9.919c28.135 36.888 18.661 76.423-4.211 99.649l-10.754 10.754zm131.624 6.272l-9.91 9.911c-27.453 27.452-71.065 29.129-100.495 5.04 10.739-10.739 28.235-31.63 60.963-32.27 17.204-.336 34.053 5.61 49.442 17.319zm-25.561-112.328c-24.084-29.429-22.404-73.04 5.045-100.489l9.91-9.91c26.591 34.946 20.509 74.75-4.416 99.861l-10.539 10.538zm131.63 6.26l-9.917 9.917c-27.96 27.959-71.564 28.781-100.498 5.043l10.345-10.345c23.169-23.168 62.962-32.919 100.07-4.615zm-25.568-112.313c-23.751-28.949-22.902-72.551 5.044-100.496l9.909-9.91c26.65 35.024 20.477 74.945-4.576 100.029l-10.377 10.377zm131.628 6.252l-9.917 9.917c-27.958 27.958-71.562 28.782-100.498 5.043l10.345-10.345c23.169-23.168 62.962-32.918 100.07-4.615zm16.438-125.193c-3.961 38.287-38.331 72.658-76.619 76.619l-8.823.913.913-8.824c3.961-38.287 38.331-72.658 76.619-76.619l8.824-.913-.914 8.824z" fill="#FFF"/></svg>