<svg xmlns="http://www.w3.org/2000/svg" viewBox="0 0 339 339" width="32" height="32"><path d="M176.093 231.63c17.412 0 34.321-6.494 47.27-18.34 14.729-13.477 23.013-32.672 22.729-52.665a6 6 0 00-5.382-5.883c-19.89-2.058-39.744 4.493-54.473 17.969a69.742 69.742 0 00-10.735 12.49v-37.35c.198.002.396.015.594.015 17.41 0 34.321-6.495 47.269-18.34 14.729-13.476 23.013-32.671 22.729-52.665a6 6 0 00-5.382-5.883c-19.89-2.055-39.744 4.493-54.473 17.969a69.708 69.708 0 00-10.735 12.49V90.692c14.575-9.791 23.493-26.344 23.493-44.008 0-18.843-10.149-36.423-26.488-45.877a6 6 0 00-6.011 0c-16.338 9.455-26.488 27.034-26.488 45.877 0 17.664 8.918 34.217 23.493 44.008v10.744a69.777 69.777 0 00-10.735-12.49c-14.729-13.476-34.58-20.025-54.473-17.969a6 6 0 00-5.382 5.883c-.284 19.993 8 39.188 22.729 52.665 12.949 11.847 29.857 18.34 47.269 18.34.198 0 .396-.014.594-.015v37.35a69.742 69.742 0 00-10.735-12.49c-14.729-13.476-34.58-20.025-54.473-17.969a6 6 0 00-5.382 5.883c-.284 19.993 8 39.188 22.729 52.665 12.949 11.847 29.856 18.34 47.27 18.34.197 0 .396-.014.593-.015v37.35a69.777 69.777 0 00-10.735-12.49c-14.729-13.476-34.58-20.025-54.473-17.969a6 6 0 00-5.382 5.883c-.284 19.993 8 39.188 22.729 52.665 12.949 11.847 29.856 18.34 47.27 18.34.197 0 .396-.014.593-.015V333a6 6 0 0012 0v-17.622c.197.002.396.015.593.015 17.412 0 34.321-6.494 47.27-18.34 14.729-13.476 23.013-32.671 22.729-52.665a6 6 0 00-5.382-5.883c-19.89-2.057-39.744 4.493-54.473 17.969a69.708 69.708 0 00-10.735 12.49v-37.35c.186.002.385.016.582.016zm18.243-50.066c10.826-9.905 24.953-15.277 39.567-15.192-1.192 14.522-7.815 28.159-18.642 38.064-10.727 9.814-24.737 15.194-39.167 15.194l-.4-.001c1.192-14.523 7.816-28.159 18.642-38.065zm0-83.764a57.935 57.935 0 0139.567-15.192c-1.192 14.522-7.815 28.159-18.642 38.064a58.035 58.035 0 01-39.567 15.192c1.192-14.521 7.816-28.158 18.642-38.064zm-70.598 22.872c-10.826-9.905-17.45-23.542-18.642-38.064A57.893 57.893 0 01144.663 97.8c10.826 9.905 17.45 23.542 18.642 38.064a58.03 58.03 0 01-39.567-15.192zm39.167 98.958c-14.429 0-28.44-5.38-39.167-15.194-10.826-9.906-17.45-23.542-18.642-38.064 14.618-.098 28.742 5.288 39.567 15.192 10.826 9.906 17.45 23.542 18.642 38.064l-.4.002zm0 83.764c-14.429 0-28.44-5.38-39.167-15.194-10.826-9.905-17.45-23.542-18.642-38.064l.401-.001c14.428 0 28.44 5.38 39.167 15.194 10.826 9.905 17.45 23.542 18.642 38.064l-.401.001zm31.431-38.066c10.826-9.905 25.027-15.286 39.567-15.192-1.192 14.522-7.815 28.159-18.642 38.064-10.727 9.814-24.737 15.194-39.167 15.194l-.4-.001c1.192-14.523 7.816-28.16 18.642-38.065zM152.007 46.685c0-13.383 6.622-25.943 17.493-33.572 10.872 7.629 17.493 20.189 17.493 33.572s-6.622 25.943-17.493 33.572c-10.872-7.63-17.493-20.19-17.493-33.572z" fill="#FFF"/></svg>