<svg xmlns="http://www.w3.org/2000/svg" viewBox="0 0 512.001 512.001" width="32" height="32"><path d="M286.287 479.963h-9.355a4.915 4.915 0 01-4.914-4.914v-43.147H239.98v47.966c0 17.746 14.386 32.133 32.133 32.133h14.174c8.847 0 16.019-7.172 16.019-16.019 0-8.847-7.172-16.019-16.019-16.019zm159.711-219.646h-6.951c-2.845 0-5.684-.662-8.127-2.121a15.28 15.28 0 01-7.434-14.447l4.689-54.503c.455-5.28-5.605-8.603-9.823-5.307-1.649 1.289-3.478 2.361-5.531 2.767-9.729 1.926-17.643-4.515-18.788-12.873l-8.412-61.412a6.085 6.085 0 00-6.029-5.26h-18.574a15.262 15.262 0 01-13.264-7.714l-24.767-43.53a9.836 9.836 0 00-12.619-4.09c-9.131 4.151-19.914.496-24.636-8.354A14008.1 14008.1 0 01265.73 5.86c-4.138-7.813-15.323-7.813-19.461 0a13863.237 13863.237 0 01-20.004 37.612c-4.722 8.849-15.505 12.505-24.636 8.354a9.836 9.836 0 00-12.619 4.09l-24.767 43.532a15.258 15.258 0 01-13.264 7.713h-18.573a6.085 6.085 0 00-6.029 5.26l-8.371 61.107c-.56 4.084-2.609 7.876-5.896 10.363a15.27 15.27 0 01-18.364.118l-.23-.171c-4.21-3.13-10.142.178-9.692 5.404l4.689 54.505a15.277 15.277 0 01-7.434 14.447c-2.443 1.459-5.281 2.121-8.127 2.121H66c-4.025 0-6.933 3.831-5.865 7.711 5.107 18.563 14.296 45.065 29.926 71.248 34.919 58.495 85.331 89.595 149.92 92.626v-53.259c-27.055-23.161-93.703-80.199-96.789-82.766-6.489-5.283-7.516-14.821-2.278-21.366 5.265-6.58 14.869-7.647 21.448-2.38 1.431 1.145 45.299 38.677 77.619 66.339v-52.539c-27.898-23.881-68.933-58.993-71.239-60.917-6.471-5.286-7.491-14.81-2.26-21.349 5.265-6.581 14.868-7.649 21.449-2.381 1.009.807 27.628 23.575 52.05 44.476v-44.105c-17.233-14.752-42.227-36.138-43.918-37.555-6.69-5.495-7.52-15.533-1.597-22.064 5.567-6.136 15.133-6.46 21.457-1.106 1.439 1.218 6.357 5.41 24.057 20.555V86.867c0-8.625 6.629-16.047 15.245-16.453 9.199-.434 16.793 6.897 16.793 16.001v75.071c17.699-15.144 22.618-19.337 24.057-20.555 6.323-5.353 15.89-5.031 21.457 1.105 5.924 6.53 5.094 16.57-1.596 22.064-1.691 1.418-26.685 22.803-43.918 37.555v44.105c24.422-20.901 51.04-43.67 52.049-44.477 6.581-5.266 16.184-4.2 21.449 2.381 5.232 6.539 4.212 16.063-2.26 21.349-2.306 1.925-43.342 37.037-71.239 60.918v52.539c32.319-27.663 76.188-65.195 77.619-66.34 6.581-5.265 16.183-4.2 21.448 2.38 5.238 6.546 4.211 16.083-2.278 21.366-3.087 2.566-69.734 59.605-96.789 82.766V431.9c64.589-3.031 115.001-34.131 149.92-92.626 15.629-26.181 24.818-47.675 29.925-66.242 1.07-3.879-1.839-12.715-5.864-12.715z" fill="#FFF"/></svg>