<?xml version="1.0" encoding="iso-8859-1"?>
<!-- Generator: Adobe Illustrator 19.0.0, SVG Export Plug-In . SVG Version: 6.00 Build 0)  -->
<svg xmlns="http://www.w3.org/2000/svg" xmlns:xlink="http://www.w3.org/1999/xlink" version="1.1" id="Capa_1" x="0px" y="0px" viewBox="0 0 512.001 512.001" style="enable-background:new 0 0 512.001 512.001;" xml:space="preserve" width="32px" height="32px">
<g>
	<g>
		<path d="M286.287,479.963h-9.355c-2.713,0-4.914-2.201-4.914-4.914v-43.147H239.98v47.966c0,17.746,14.386,32.133,32.133,32.133    h14.174c8.847,0,16.019-7.172,16.019-16.019C302.306,487.135,295.134,479.963,286.287,479.963z" fill="#FFFFFF"/>
	</g>
</g>
<g>
	<g>
		<path d="M445.998,260.317h-6.951c-2.845,0-5.684-0.662-8.127-2.121c-5.165-3.084-7.925-8.728-7.434-14.447l4.689-54.503    c0.455-5.28-5.605-8.603-9.823-5.307c-1.649,1.289-3.478,2.361-5.531,2.767c-9.729,1.926-17.643-4.515-18.788-12.873    l-8.412-61.412c-0.412-3.014-2.988-5.26-6.029-5.26h-18.574c-5.486,0-10.55-2.945-13.264-7.714l-24.767-43.53    c-2.516-4.421-7.988-6.195-12.619-4.09c-9.131,4.151-19.914,0.496-24.636-8.354C279.121,31.082,272.14,17.965,265.73,5.86    c-4.138-7.813-15.323-7.813-19.461,0c-6.411,12.105-13.392,25.222-20.004,37.612c-4.722,8.849-15.505,12.505-24.636,8.354    c-4.631-2.105-10.104-0.331-12.619,4.09l-24.767,43.532c-2.713,4.769-7.777,7.713-13.264,7.713h-18.573    c-3.042,0-5.617,2.246-6.029,5.26l-8.371,61.107c-0.56,4.084-2.609,7.876-5.896,10.363c-5.568,4.212-13.015,4.091-18.364,0.118    l-0.23-0.171c-4.21-3.13-10.142,0.178-9.692,5.404l4.689,54.505c0.492,5.719-2.268,11.363-7.434,14.447    c-2.443,1.459-5.281,2.121-8.127,2.121H66c-4.025,0-6.933,3.831-5.865,7.711c5.107,18.563,14.296,45.065,29.926,71.248    c34.919,58.495,85.331,89.595,149.92,92.626v-53.259c-27.055-23.161-93.703-80.199-96.789-82.766    c-6.489-5.283-7.516-14.821-2.278-21.366c5.265-6.58,14.869-7.647,21.448-2.38c1.431,1.145,45.299,38.677,77.619,66.339v-52.539    c-27.898-23.881-68.933-58.993-71.239-60.917c-6.471-5.286-7.491-14.81-2.26-21.349c5.265-6.581,14.868-7.649,21.449-2.381    c1.009,0.807,27.628,23.575,52.05,44.476v-44.105c-17.233-14.752-42.227-36.138-43.918-37.555    c-6.69-5.495-7.52-15.533-1.597-22.064c5.567-6.136,15.133-6.46,21.457-1.106c1.439,1.218,6.357,5.41,24.057,20.555V86.867    c0-8.625,6.629-16.047,15.245-16.453c9.199-0.434,16.793,6.897,16.793,16.001v75.071c17.699-15.144,22.618-19.337,24.057-20.555    c6.323-5.353,15.89-5.031,21.457,1.105c5.924,6.53,5.094,16.57-1.596,22.064c-1.691,1.418-26.685,22.803-43.918,37.555v44.105    c24.422-20.901,51.04-43.67,52.049-44.477c6.581-5.266,16.184-4.2,21.449,2.381c5.232,6.539,4.212,16.063-2.26,21.349    c-2.306,1.925-43.342,37.037-71.239,60.918v52.539c32.319-27.663,76.188-65.195,77.619-66.34c6.581-5.265,16.183-4.2,21.448,2.38    c5.238,6.546,4.211,16.083-2.278,21.366c-3.087,2.566-69.734,59.605-96.789,82.766V431.9    c64.589-3.031,115.001-34.131,149.92-92.626c15.629-26.181,24.818-47.675,29.925-66.242    C452.932,269.153,450.023,260.317,445.998,260.317z" fill="#FFFFFF"/>
	</g>
</g>
<g>
</g>
<g>
</g>
<g>
</g>
<g>
</g>
<g>
</g>
<g>
</g>
<g>
</g>
<g>
</g>
<g>
</g>
<g>
</g>
<g>
</g>
<g>
</g>
<g>
</g>
<g>
</g>
<g>
</g>
</svg>
