<?xml version="1.0"?>
<svg xmlns="http://www.w3.org/2000/svg" viewBox="0 0 64 64" width="512" height="512"><g id="outline"><path d="M39,28a2.981,2.981,0,0,0-2,.78A2.987,2.987,0,0,0,32,31h2a1,1,0,0,1,2,0h2a1,1,0,0,1,2,0h2A3,3,0,0,0,39,28Z"/><path d="M30,37a2.981,2.981,0,0,0-2,.78A2.987,2.987,0,0,0,23,40h2a1,1,0,0,1,2,0h2a1,1,0,0,1,2,0h2A3,3,0,0,0,30,37Z"/><path d="M26,23a1,1,0,0,1,1,1h2a1,1,0,0,1,2,0h2a2.987,2.987,0,0,0-5-2.22A2.987,2.987,0,0,0,23,24h2A1,1,0,0,1,26,23Z"/><path d="M30,14a1,1,0,0,1,1,1h2a1,1,0,0,1,2,0h2a2.987,2.987,0,0,0-5-2.22A2.987,2.987,0,0,0,27,15h2A1,1,0,0,1,30,14Z"/><path d="M45.3,26.253a3.967,3.967,0,0,0-.78-5.35A3.946,3.946,0,0,0,45,19a4,4,0,0,0-2.262-3.588A3.938,3.938,0,0,0,43,14a4.007,4.007,0,0,0-3-3.874c0-.042,0-.084,0-.126a3.972,3.972,0,0,0-4.115-4C35.479,4.138,34.027,2,32,2s-3.479,2.138-3.885,4A3.993,3.993,0,0,0,24,10c0,.042,0,.084,0,.126A4.007,4.007,0,0,0,21,14a3.938,3.938,0,0,0,.262,1.412A4,4,0,0,0,19,19a3.946,3.946,0,0,0,.484,1.9,3.967,3.967,0,0,0-.78,5.35A4.946,4.946,0,0,0,17,30a5.58,5.58,0,0,0,1.483,3.986A5.694,5.694,0,0,0,17,38a6.009,6.009,0,0,0,5.072,5.928A5.95,5.95,0,0,0,29,48.908V61a1,1,0,0,0,1,1h4a1,1,0,0,0,1-1V48.908a5.95,5.95,0,0,0,6.928-4.98A6.009,6.009,0,0,0,47,38a5.7,5.7,0,0,0-1.479-4.01A5.589,5.589,0,0,0,47,30,4.946,4.946,0,0,0,45.3,26.253ZM33,60H31V48.178a5.945,5.945,0,0,0,1-.722,5.945,5.945,0,0,0,1,.722ZM43.043,34.292a1,1,0,0,0,.394.534A3.6,3.6,0,0,1,45,38a4,4,0,0,1-4,4,1,1,0,0,0-1,1,4,4,0,0,1-4,4,3.962,3.962,0,0,1-3.2-1.625,1,1,0,0,0-1.6,0A3.962,3.962,0,0,1,28,47a4,4,0,0,1-4-4,1,1,0,0,0-1-1,4,4,0,0,1-4-4,3.6,3.6,0,0,1,1.563-3.174,1,1,0,0,0,.394-.534,1.051,1.051,0,0,0-.5-1.212A3.455,3.455,0,0,1,19,30a2.979,2.979,0,0,1,1.685-2.681,1,1,0,0,0,.147-1.706A1.978,1.978,0,0,1,20,24a2,2,0,0,1,1.312-1.868,1,1,0,0,0,.335-1.672A1.971,1.971,0,0,1,21,19a2,2,0,0,1,1.864-1.982,1,1,0,0,0,.669-1.673A1.99,1.99,0,0,1,24.97,12h0c.026,0,.132.016.157.017a.967.967,0,0,0,.862-.4,1,1,0,0,0,.139-.94A1.972,1.972,0,0,1,26,10a2,2,0,0,1,2-2,1.972,1.972,0,0,1,.678.129,1,1,0,0,0,1.339-1C30.016,7.1,30,7.025,30,7c0-1.239,1.034-3,2-3s2,1.761,2,2.971c0,.026-.016.132-.017.157a1,1,0,0,0,1.339,1A1.972,1.972,0,0,1,36,8a2,2,0,0,1,2,2,1.972,1.972,0,0,1-.129.678,1,1,0,0,0,.139.94.97.97,0,0,0,.862.4c.025,0,.1-.014.128-.017a1.99,1.99,0,0,1,1.467,3.345,1,1,0,0,0,.669,1.673A2,2,0,0,1,43,19a1.971,1.971,0,0,1-.647,1.46,1,1,0,0,0,.335,1.672A2,2,0,0,1,44,24a1.978,1.978,0,0,1-.832,1.613,1,1,0,0,0,.147,1.706A2.979,2.979,0,0,1,45,30a3.455,3.455,0,0,1-1.461,3.08A1.051,1.051,0,0,0,43.043,34.292Z"/></g></svg>
