<svg xmlns="http://www.w3.org/2000/svg" viewBox="0 0 512 512" width="32" height="32"><path d="M437.881 279.46l-50.28-156.2a14.988 14.988 0 00-3.856-6.191L266.932 4.212A15 15 0 00256.51 0h-1.019a15 15 0 00-10.422 4.212L128.255 117.069a15 15 0 00-3.856 6.191l-50.28 156.2a15 15 0 00.61 10.776l55.161 122a15.01 15.01 0 007.718 7.59L241 464.503V497c0 8.284 6.716 15 15 15 8.284 0 15-6.716 15-15v-32.497l103.393-44.677a15.006 15.006 0 007.718-7.59l55.161-122a15.005 15.005 0 00.609-10.776zm-80.716 115.129L271 431.822v-46.745l88.657-68.568c6.553-5.068 7.757-14.489 2.688-21.042-5.068-6.553-14.489-7.758-21.042-2.688L271 347.151v-48.173c.397-.252.789-.519 1.168-.813l77.574-59.997c6.553-5.068 7.757-14.489 2.688-21.042-5.069-6.553-14.49-7.758-21.042-2.688L271 261.144v-52.471l48.4-37.433c6.553-5.068 7.757-14.489 2.688-21.042-5.069-6.553-14.49-7.758-21.042-2.688L271 170.748V92.65c0-8.284-6.716-15-15-15-8.284 0-15 6.716-15 15v78.097l-30.047-23.238c-6.553-5.068-15.974-3.865-21.042 2.688-5.068 6.553-3.865 15.974 2.688 21.042l48.4 37.433v52.471l-60.389-46.705c-6.554-5.067-15.975-3.865-21.042 2.688-5.068 6.553-3.865 15.974 2.688 21.042l77.574 59.997c.38.294.771.561 1.168.813v48.173l-70.304-54.373c-6.553-5.068-15.974-3.864-21.042 2.688-5.068 6.553-3.865 15.974 2.688 21.042L241 385.077v46.745l-86.165-37.233-50.387-111.442 47.355-147.115L256 35.365l104.196 100.667 47.356 147.115-50.387 111.442z" fill="#FFF"/></svg>