<svg xmlns="http://www.w3.org/2000/svg" viewBox="0 0 496.544 496.544" width="32" height="32"><g fill="#FFF"><path d="M408.272 48h-38.56l8-48h-66.888l8 48h-38.552c-48.52 0-88 39.48-88 88v8h-14.56l8-48h-66.888l8 48H88.272c-48.52 0-88 39.48-88 88v32c0 10.416 6.704 19.216 16 22.528v75.856c0 49.744 31.288 94.888 77.856 112.36l58.144 21.8 58.144-21.808c41.288-15.488 70.512-52.744 76.624-95.664l57.232 21.472 58.144-21.808c46.568-17.464 77.856-62.616 77.856-112.36V190.52c9.288-3.312 16-12.112 16-22.528v-32c0-48.52-39.48-87.992-88-87.992zm-49.448-32l-5.328 32h-18.448l-5.328-32h29.104zm-192 96l-5.328 32h-18.448l-5.328-32h29.104zm105.448 250.376c0 43.112-27.12 82.24-67.488 97.376l-52.512 19.696-52.52-19.696c-40.36-15.128-67.48-54.264-67.48-97.376v-74.384h240v74.384zm8-90.376h-256c-4.416 0-8-3.584-8-8v-32c0-39.704 32.296-72 72-72h128c39.704 0 72 32.296 72 72v32c0 4.408-3.584 8-8 8zm200-104c0 4.416-3.584 8-8 8h-24v16h16v74.384c0 43.112-27.12 82.24-67.488 97.376l-52.512 19.688-52.52-19.696c-1.184-.448-2.312-.984-3.48-1.472v-75.76c9.288-3.312 16-12.112 16-22.528v-32c0-14.408-3.552-27.984-9.712-40h137.712v-16H284.104c-5.04-6.088-10.912-11.448-17.392-16h5.56v-16h-16v9.712c-12.016-6.168-25.592-9.712-40-9.712h-8v-8c0-39.704 32.296-72 72-72h128c39.704 0 72 32.296 72 72V168z"/><path d="M256.272 80h16v16h-16zm32 0h16v16h-16zm32 0h16v16h-16zm32 0h16v16h-16zm32 0h16v16h-16zm32 0h16v16h-16zm-128 64h16v16h-16zm32 0h16v16h-16zm32 0h16v16h-16zm32 0h16v16h-16zm32 0h16v16h-16zm32 0h16v16h-16zm-224-32h16v16h-16zm32 0h16v16h-16zm32 0h16v16h-16zm32 0h16v16h-16zm32 0h16v16h-16zm32 0h16v16h-16zm32 0h16v16h-16zm32 0h16v16h-16zM105.376 444.776l4.072 1.52 5.608-14.984-4.064-1.52c-27.944-10.472-46.72-37.568-46.72-67.416v-2.384h-16v2.384c0 36.48 22.944 69.6 57.104 82.4zM64.272 176h16v16h-16zm32 0h16v16h-16zm32 0h16v16h-16zm32 0h16v16h-16zm32 0h16v16h-16zm32 0h16v16h-16zm-192 64h16v16h-16zm32 0h16v16h-16zm32 0h16v16h-16zm32 0h16v16h-16zm32 0h16v16h-16zm32 0h16v16h-16zm32 0h16v16h-16zm32 0h16v16h-16zm-224-32h16v16h-16zm32 0h16v16h-16zm32 0h16v16h-16zm32 0h16v16h-16zm32 0h16v16h-16zm32 0h16v16h-16zm32 0h16v16h-16zm32 0h16v16h-16zm-208 120h16v16h-16z"/></g></svg>