<svg xmlns="http://www.w3.org/2000/svg" viewBox="0 0 471.898 471.898" width="32" height="32"><path d="M323.405 307.163c-.397-1.88-1.107-3.6-2.125-5.14-2.318-3.516-5.99-5.731-10.617-6.407-6.387-.93-14.581 1.265-22.969 5.912-1.752-6.199-4.86-11.496-9.148-15.408-5.238-4.778-11.76-7.083-18.866-6.655-3.026.181-6.055.859-9.032 2.019-3.095-.798-6.182-1.11-9.212-.929-7.812.466-14.682 4.239-19.346 10.624-6.293 8.616-8.021 20.947-4.739 33.832 1.444 5.672 3.788 11.062 6.791 15.906L205.22 356.38v-82.573c.031-.282 0-2.225 0-2.225 1.251.102 2.512.158 3.781.158 15.32 0 31.653-7.19 42.869-15.845 12.597-9.721 19.581-21.59 19.163-32.564a6.5 6.5 0 00-4.609-5.973c-3.606-1.094-7.523-1.638-11.624-1.678.634-4.767.713-9.621.134-13.55a6.499 6.499 0 00-5.229-5.439c-8.972-1.689-18.756 1.597-28.289 9.503-6.085 5.046-11.619 11.561-16.196 18.723v-29.908c9.227-.602 19.376-5.408 28.871-13.854 13.749-12.231 26.688-33.202 24.603-52.482a6.5 6.5 0 00-5.015-5.638c-10.471-2.391-22.631 1.671-34.252 11.435-5.386 4.525-10.188 9.861-14.207 15.596v-19.992c9.59-2.588 19.075-10.333 26.72-22.049 10.006-15.334 16.986-38.757 10.025-56.521-1.011-2.583-3.576-4.232-6.319-4.124-4.949.204-9.864 1.818-14.578 4.711.919-17.296-3.641-38.054-16.575-50.307A6.498 6.498 0 00197.02.738c-9.888 5.149-16.541 16.61-18.735 32.273-2.438 17.403 1.024 40.551 13.936 54.658v49.075c-8.072-11.279-18.72-19.627-30.479-20.418a6.494 6.494 0 00-6.425 3.957c-1.697 4.019-2.786 8.45-3.272 13.239-4.517-1.173-9.075-1.743-13.567-1.559a6.5 6.5 0 00-5.959 4.629c-3.445 11.5.73 26.014 11.457 39.821 10.929 14.068 29.444 27.929 48.245 30.122v28.875c-3.462-4.788-7.488-9.037-11.942-12.437-7.043-5.376-14.682-8.261-22.16-8.494-.148-.197-.295-.405-.444-.596-7.647-9.878-17.586-16.051-26.586-16.513-5.505-.276-10.486 1.616-14.036 5.34a18.665 18.665 0 00-3.448 5.119c-1.886.98-3.542 2.213-4.946 3.687-3.551 3.727-5.206 8.798-4.66 14.279.895 8.967 7.538 18.598 17.773 25.764.214.15.44.294.658.442.852 9.624 6.261 19.246 15.615 27.323 12.6 10.879 29.422 16.919 45.081 16.919 3.09 0 6.136-.236 9.095-.716v82.579c-.046.892 0 11.328 0 11.328l-3.943-4.653c0-.57-.011-1.142-.047-1.717-.489-7.696-4.254-15.489-10.525-22.048a57.759 57.759 0 004.282-7.676c5.569-12.073 6.112-24.513 1.489-34.13-3.426-7.126-9.496-12.085-17.093-13.963-2.946-.729-6.036-.982-9.227-.761-2.716-1.682-5.571-2.898-8.515-3.626-7.191-1.781-14.536-.461-20.684 3.714-5.365 3.643-9.602 9.29-12.301 16.165-7.769-6.674-15.807-10.579-22.648-10.779-4.627-.129-8.555 1.378-11.44 4.377a14.85 14.85 0 00-3.021 4.667c-1.747.802-3.269 1.872-4.546 3.202-2.92 3.035-4.275 7.103-3.918 11.765.493 6.437 4.434 13.948 10.812 21.11-5.661 3.071-10.145 7.266-13.02 12.309-3.511 6.16-4.323 13.029-2.35 19.865.842 2.914 2.169 5.72 3.956 8.371-.099 3.198.275 6.28 1.117 9.192 2.172 7.518 7.362 13.391 14.616 16.537 3.983 1.729 8.4 2.583 13.037 2.583 6.757 0 13.981-1.816 21.007-5.394a56.235 56.235 0 007.491-4.59c6.802 6.021 14.741 9.487 22.457 9.677.222.005.443.008.664.008.352 0 .702-.012 1.052-.026l13.085 10.243c4.478 3.504 10.049 5.344 15.764 5.344 2.441 0 4.911-.336 7.331-1.022a21.797 21.797 0 005.118-1.954v27.617c-.09 10.373 8.827 8.956 11.659 5.535l43.779-57.126a6.5 6.5 0 10-10.318-7.907l-32.12 41.913V401.32c.206.099.406.208.615.301a26.702 26.702 0 0011.814 2.777c4.053 0 8.064-.944 11.678-2.832l25.854-13.506a57.71 57.71 0 0012.003 12.474c8.285 6.346 17.469 9.722 26.063 9.721 2.356 0 4.67-.254 6.907-.77 7.704-1.776 13.874-6.608 17.374-13.605 1.359-2.717 2.288-5.679 2.771-8.835 2.237-2.281 4.052-4.799 5.407-7.512 3.502-6.999 3.67-14.835.473-22.067-2.506-5.668-6.878-10.621-12.604-14.489 8.208-6.11 13.779-13.089 15.476-19.715 1.142-4.458.534-8.649-1.757-12.123-1.018-1.544-2.32-2.872-3.89-3.976zm-160.749 93.783c-.898 2.278-2.113 4.223-3.609 5.78-2.583 2.685-5.789 3.992-9.521 3.907-4.313-.106-8.908-2.074-13.128-5.527 4.195-4.837 7.448-10.247 9.451-15.811l2.751 2.647a3.999 3.999 0 005.656-.109 4.002 4.002 0 00-.109-5.656l-3.987-3.836c6.829-2.002 13.427-5.945 19.112-11.303 3.583 4.069 5.71 8.562 5.982 12.847.237 3.729-.952 6.983-3.535 9.668-1.492 1.551-3.388 2.839-5.634 3.828a6.501 6.501 0 00-3.429 3.565zM83.37 331.214c.301-.313.947-.59 1.772-.759a6.497 6.497 0 005.104-5.309c.137-.831.39-1.488.69-1.801.308-.32.957-.396 1.508-.396.063 0 .124.001.184.003 4.129.12 11.904 4.167 19.816 12.732-.01.149.323 7.775 1.166 11.779l-5.6-3.934a4 4 0 10-4.599 6.546l10.634 7.471.999 4.572c-4.763-1.042-10.085-3.321-15.452-7.416-10.862-8.289-16.193-17.071-16.549-21.725-.045-.602-.027-1.395.327-1.763zm29.99 75.743c-8.259 4.205-16.848 5.126-22.973 2.47-3.737-1.622-6.193-4.387-7.301-8.221-.598-2.066-.766-4.354-.499-6.798a6.498 6.498 0 00-1.371-4.745c-1.527-1.925-2.605-3.95-3.202-6.017-.991-3.433-.604-6.738 1.154-9.822 2.236-3.923 6.55-7.166 12.068-9.16.159.123.31.25.47.372 10.382 7.922 20.052 10.819 28.714 10.134 10.579-.837 7.833-8.333 6.167-16.75-1.128-5.698-1.575-14.243-1.186-21.599.047-.885.298-3.26.314-3.381 1.108-8.146 4.587-14.749 9.544-18.115 3.142-2.134 6.592-2.758 10.26-1.85 2.091.517 4.154 1.515 6.133 2.965a6.502 6.502 0 004.801 1.187c2.423-.362 4.715-.283 6.81.235 3.872.958 6.73 3.304 8.496 6.976 2.894 6.02 2.304 14.637-1.578 23.053-5.156 11.179-15.331 20.045-25.156 22.336l8.521-34.371a4.001 4.001 0 00-7.766-1.925l-10.092 40.712-.052.124-31.957 19.708a3.999 3.999 0 002.103 7.405 3.98 3.98 0 002.096-.596l25.529-15.744c-3.226 8.431-10.71 16.666-20.047 21.417zm78.216 10.441a6.023 6.023 0 00-.077.354c-.329 1.724-1.2 3.362-2.511 4.726l-.363.377c-1.317 1.369-2.919 2.302-4.632 2.698a7.158 7.158 0 00-.349.091c-4.067 1.182-8.521.405-11.626-2.026l-6.625-5.187a26.353 26.353 0 003.025-2.695c2.104-2.19 3.871-4.741 5.271-7.608 2.815-1.512 5.297-3.375 7.399-5.562a26.347 26.347 0 002.575-3.123l5.438 6.418c2.548 3.008 3.497 7.428 2.475 11.537zm65.727-188.614c-1.741 5.48-6.452 11.475-13.376 16.818-11.731 9.053-26.413 13.966-37.766 13.012 2.017-5.812 7.181-12.105 14.645-17.642 11.647-8.639 25.586-13.18 36.497-12.188zm-27.589-12.585c4.378-3.631 8.699-5.896 12.589-6.651a47.52 47.52 0 01-.941 7.676c-6.866 1.585-13.87 4.362-20.535 8.213 2.757-3.488 5.752-6.639 8.887-9.238zm-1.926-71.778c6.265-5.264 12.571-8.364 17.999-8.952-1.061 11.7-8.854 25.755-20.338 35.97-6.847 6.091-13.952 9.777-19.965 10.509 1.715-12.602 10.415-27.539 22.304-37.527zm3.489-82.973c1.941 11.348-1.903 26.716-10.226 39.471-4.823 7.392-10.423 12.745-15.833 15.345V88.611c3.992-2.934 7.33-7.038 9.907-12.135 4.994-7.647 10.665-12.883 16.152-15.028zm-40.12-26.636c1.2-8.565 4.004-15.38 7.919-19.508 7.105 9.909 10.625 26.297 8.507 41.415-.734 5.235-2.069 9.812-3.889 13.527a6.977 6.977 0 00-.253.504c-1.1 2.145-2.365 3.989-3.777 5.478-7.106-9.909-10.624-26.298-8.507-41.416zm-25.475 95.591c8.702 3.346 17.669 13.752 23.379 27.008-6.825-7.622-15.242-14.342-24.29-18.968.056-2.865.35-5.558.911-8.04zm-11.442 38.032c-6.354-8.18-9.849-16.498-9.915-23.238 3.494.454 7.043 1.468 10.55 2.912a6.49 6.49 0 001.874.813c16.899 7.734 32.396 25.276 35.469 39.849v4.612c-12.822-2.102-27.644-11.647-37.978-24.948zm37.979 103.908v9.072c-6.882-.181-14.328-4.074-21.076-11.168-11.338-11.92-16.996-28.951-14.556-42.803 6.312-.215 11.941 2.914 15.802 5.859 11.168 8.526 19.224 24.466 19.83 39.04zm-75.287-47.841c-.229-2.296.538-3.395 1.135-4.021.651-.684 1.577-1.234 2.751-1.635a6.5 6.5 0 004.139-4.345c.344-1.188.849-2.137 1.503-2.823.597-.627 1.646-1.442 3.961-1.328 3.446.177 9.171 2.671 14.837 8.942-.062.158-.13.312-.18.476a48.506 48.506 0 00-1.931 10.178l-8.631-8.571a4 4 0 10-5.636 5.677l9.204 9.141c-3.893.439-7.61 1.27-11.04 2.5-.161.058-.313.133-.467.203-6.534-5.359-9.303-10.96-9.645-14.394zm18.369 25.306c2.99-.677 6.225-.999 9.6-.974 2.972 11.462 9.069 21.931 16.083 29.571-5.487-2.388-10.463-5.486-14.444-8.923-7.099-6.129-11.046-13.117-11.239-19.674zm88.006 140.232c-3.495 1.825-8.016 1.78-11.798-.119a8.142 8.142 0 00-.328-.154c-1.611-.7-3.017-1.908-4.066-3.5l-.279-.421c-1.048-1.59-1.606-3.359-1.616-5.115v-2.093c.237-3.607 1.884-7.011 4.52-9.165l22.491-18.378c4.092 4.043 8.709 7.254 13.575 9.327-.034 5.342 1.073 10.859 3.174 16.207l-25.673 13.411zm90.772-16.326c-.963 1.926-2.389 3.72-4.237 5.331a6.499 6.499 0 00-2.213 4.423c-.18 2.443-.761 4.661-1.728 6.591-1.784 3.567-4.701 5.84-8.669 6.755-6.51 1.501-14.786-.968-22.145-6.604-9.274-7.101-15.526-18.172-16.203-27.908l32.678 14.407a4.002 4.002 0 005.273-2.046 4 4 0 00-2.047-5.274l-36.072-15.904a6.444 6.444 0 00-.451-.917l-5.679-36.649a4 4 0 00-8 0l5.679 32.283c-9.113-4.138-17.304-14.562-20.318-26.4-2.287-8.981-1.301-17.563 2.64-22.956 2.402-3.29 5.641-5.078 9.623-5.316 2.152-.127 4.418.21 6.739 1.006a6.5 6.5 0 004.931-.294c2.214-1.067 4.427-1.673 6.575-1.802 3.552-.21 6.706.892 9.329 3.284 3.335 3.042 5.552 7.964 6.284 13.786-.154.128-.311.247-.465.376-14.885 12.473-17.601 33.283-9.799 37.946 1.927 1.152 4.518.952 6.3-.414 8.482-6.5 37.566 3.676 42.184 15.3 1.505 3.787 1.578 7.425-.209 10.996zm2.378-53.68c-1.025 4.002-6.681 10.698-16.775 16.535l-1.655-.473c-2.56-.735-5.845-1.666-9.491-2.351l6.326-4.17a4.001 4.001 0 00-4.402-6.68l-15.471 10.198c-.302.038-.603.074-.905.121 1.032-3.955 3.724-8.211 9.871-13.363 10.472-8.775 20.224-12.051 24.829-11.372.598.087 1.367.28 1.647.705.239.363.367 1.052.351 1.891a6.502 6.502 0 004.062 6.155c.777.314 1.362.704 1.602 1.067.271.412.155 1.172.011 1.737zm89.574-108.7l-65.005 82.465a6.489 6.489 0 01-5.108 2.477 6.499 6.499 0 01-5.101-10.524l65.005-82.465a6.5 6.5 0 1110.209 8.047zm-130.958 56.838c0-.614.088-1.238.271-1.856L336.71 59.824c1.023-3.441 4.595-5.233 8.082-4.379 5.169 1.266 4.563 7.464 4.379 8.082l-30.686 214.839a6.503 6.503 0 01-7.332 5.544 6.5 6.5 0 01-5.545-7.332l17.323-124.756-35.126 118.197a6.504 6.504 0 01-6.228 4.65 6.502 6.502 0 01-6.504-6.497z" fill="#FFF"/></svg>