<?xml version='1.0' encoding='iso-8859-1'?>
<!DOCTYPE svg PUBLIC '-//W3C//DTD SVG 1.1//EN' 'http://www.w3.org/Graphics/SVG/1.1/DTD/svg11.dtd'>
<svg version="1.1" xmlns="http://www.w3.org/2000/svg" viewBox="0 0 470 470" xmlns:xlink="http://www.w3.org/1999/xlink" enable-background="new 0 0 470 470">
  <g>
    <path d="m125.843,123.846c-0.31,0-0.628-0.004-0.953-0.013-0.857-0.037-1.695-0.054-2.523-0.054-14.42,0-26.127,5.567-32.964,15.674-7.209,10.657-8.1,24.858-2.446,38.96 7.257,18.111 20.9,28.425 34.091,38.398 0.659,0.498 1.37,1.029 2.121,1.59 10.32,7.708 16.112,13.138 17.245,16.159-0.483,0.154-1.171,0.317-2.086,0.424-11.724,1.368-21.391,7.229-26.524,16.082-4.837,8.344-5.254,18.646-1.143,28.267 8.134,19.028 28.48,28.89 47.312,36.028 19.053,7.218 20.193,7.65 26.642,22.407 9.354,21.404 22.913,33.887 40.391,37.237v94.995h19.999v-95c17.467-3.357 31.018-15.839 40.367-37.232 6.448-14.757 7.589-15.189 26.644-22.407 18.83-7.14 39.176-17.003 47.308-36.028 4.111-9.62 3.694-19.923-1.144-28.266-5.132-8.853-14.799-14.714-26.521-16.082-0.913-0.106-1.601-0.27-2.086-0.425 1.139-3.029 6.935-8.461 17.261-16.172 0.743-0.555 1.448-1.081 2.103-1.577 13.193-9.975 26.836-20.289 34.092-38.398 5.652-14.109 4.786-28.272-2.377-38.857-6.876-10.163-18.743-15.76-33.415-15.76-0.701,0-1.417,0.013-2.071,0.036-0.343,0.01-0.679,0.015-1.007,0.015-5.14,0-6.405-1.18-6.414-1.192-0.015-0.021-1.408-2.324 1.617-11.436l.042-.13c2.919-9.208 6.551-20.667 8.444-31.309 2.259-12.712-0.573-24.578-7.976-33.412-7.107-8.48-17.621-13.15-29.607-13.15-5.678,0-11.572,1.054-17.519,3.131-3.252,1.137-5.729,1.713-7.362,1.713-1.022,0-2.18,0-6.163-6.545-6.239-10.251-11.605-16.967-17.396-21.774-7.893-6.556-16.67-9.743-26.833-9.743-10.161,0-18.936,3.187-26.829,9.743-5.797,4.815-11.163,11.53-17.398,21.775-3.976,6.535-5.137,6.535-6.162,6.535-1.633,0-4.108-0.572-7.357-1.702l-.13-.044c-5.942-1.974-11.803-2.975-17.42-2.975-12.103,0-22.656,4.64-29.715,13.065-7.328,8.745-10.112,20.601-7.841,33.382 1.878,10.578 5.494,21.995 8.398,31.169l.061,.191c2.978,9.228 1.652,11.538 1.643,11.552-0.012,0.011-1.296,1.155-6.399,1.155zm22.561,10.621c6.669-9.159 3.894-21.206 1.243-29.419l-.044-.139c-2.729-8.617-6.124-19.341-7.774-28.629-1.218-6.856 0.017-12.908 3.479-17.039 3.24-3.867 8.214-5.91 14.386-5.91 3.452,0 7.171,0.651 11.053,1.934 5.484,1.901 9.889,2.787 13.855,2.787 13.427,0 19.815-10.498 23.247-16.137 5.034-8.271 9.072-13.448 13.093-16.788 4.327-3.594 8.529-5.128 14.05-5.128 5.525,0 9.729,1.534 14.058,5.129 4.015,3.332 8.051,8.509 13.089,16.785 3.434,5.643 9.826,16.147 23.247,16.147 3.994,0 8.43-0.9 13.96-2.832 3.82-1.335 7.495-2.012 10.921-2.012 6.054,0 10.99,2.073 14.277,5.996 3.537,4.22 4.82,10.281 3.614,17.065-1.659,9.327-5.059,20.063-7.798,28.703-1.589,4.786-6.277,19.059 1.168,29.376 4.543,6.296 12.157,9.488 22.632,9.488 0.515,0 1.04-0.008 1.647-0.025 0.483-0.017 0.962-0.026 1.432-0.026 5.537,0 12.954,1.209 16.852,6.968 3.332,4.924 3.472,12.48 0.375,20.211-5.188,12.948-16.068,21.174-27.591,29.885-0.623,0.471-1.296,0.974-2.006,1.504-12.336,9.212-23.55,18.432-25.259,29.928-0.797,5.364 0.395,10.308 3.449,14.295 3.5,4.57 9.13,7.428 16.282,8.263 5.475,0.639 9.572,2.857 11.538,6.248 1.666,2.874 1.685,6.559 0.055,10.375-5.215,12.201-21.982,19.869-36.005,25.186-21.783,8.253-28.483,11.589-37.882,33.101-6.819,15.603-14.833,22.022-22.041,24.574v-76.071l45.125-47.508-14.502-13.773-30.623,32.241v-61.52l45.125-47.508-14.502-13.773-30.623,32.24v-54.852h-19.999v54.852l-30.623-32.24-14.501,13.773 45.124,47.507v61.518l-30.623-32.24-14.501,13.773 45.124,47.507v76.083c-7.213-2.546-15.237-8.96-22.064-24.582-9.4-21.512-16.099-24.849-37.881-33.101-14.025-5.315-30.793-12.982-36.009-25.185-1.631-3.817-1.611-7.501 0.055-10.375 1.966-3.391 6.064-5.61 11.539-6.249 7.147-0.833 12.774-3.688 16.274-8.255 3.058-3.991 4.254-8.935 3.46-14.304-1.708-11.489-12.914-20.706-25.241-29.913-0.716-0.535-1.395-1.043-2.026-1.52-11.52-8.708-22.4-16.934-27.59-29.886-3.098-7.727-2.93-15.32 0.447-20.313 3.847-5.687 11.041-6.88 16.398-6.88 0.566,0 1.139,0.013 1.726,0.039l.157,.006c0.543,0.015 1.074,0.023 1.593,0.023 10.438,0.001 18.029-3.154 22.559-9.378z"/>
  </g>
</svg>
