<?xml version="1.0" encoding="iso-8859-1"?>
<!-- Generator: Adobe Illustrator 19.0.0, SVG Export Plug-In . SVG Version: 6.00 Build 0)  -->
<svg version="1.1" id="Capa_1" xmlns="http://www.w3.org/2000/svg" xmlns:xlink="http://www.w3.org/1999/xlink" x="0px" y="0px"
	 viewBox="0 0 428.21 428.21" style="enable-background:new 0 0 428.21 428.21;" xml:space="preserve">
<g>
	<g>
		<path d="M389.399,64.45l0.16,0.24c-31.834-2.003-63.792-0.203-95.2,5.36c-59.112-59.954-145.771-83.725-227.2-62.32
			c-4.284,1.08-6.882,5.428-5.803,9.712c0.276,1.096,0.781,2.121,1.483,3.008c0.64,0.8,57.52,71.12,153.52,76
			c-46.05,22.474-82.826,60.297-104,106.96c-45.2,3.76-81.12,52.56-81.12,112c0.4,62.32,39.12,112.8,87.12,112.8
			c29.6,0,56-19.36,71.52-48.88c11.42,7.475,24.751,11.503,38.4,11.6c48,0,86.8-50.48,86.8-112.56c0-58.56-34.72-106.8-78.8-112
			c0.48-15.6,5.68-54.32,41.92-76l16.16-4.32c31.044-5.674,62.662-7.555,94.16-5.6c4.418,0.243,8.197-3.142,8.44-7.56
			C397.202,68.472,393.817,64.693,389.399,64.45z M118.359,412.21c-39.04,0-70.8-43.28-70.8-96.56c0-53.28,32-96.56,70.8-96.56
			s70.8,42.96,70.8,96.56C189.159,369.25,157.399,412.21,118.359,412.21z M299.079,278.05c0,53.28-32,96.56-70.8,96.56
			c-11.498-0.151-22.67-3.838-32-10.56c5.756-15.596,8.682-32.095,8.64-48.72c0.792-33.628-11.947-66.168-35.36-90.32
			c12.8-26.96,35.12-42.96,58.72-42.96C267.319,182.05,299.079,225.17,299.079,278.05z M220.199,166.05
			c-25.68,3.12-48.96,20.88-63.52,48.4c-8.173-5.337-17.345-8.957-26.96-10.64c9.44-20.88,39.12-72.72,112.16-102.32h0.08
			C228.304,120.294,220.712,142.817,220.199,166.05z M272.199,75.33l-9.84,2.32c-92.16,17.12-155.84-35.04-178.4-57.44
			c68.983-14.493,140.69,5.742,191.92,54.16h0.08C274.646,74.377,273.355,74.707,272.199,75.33z"/>
	</g>
</g>
<g>
	<g>
		<path d="M119.879,385.57l0.16,0.4c-34.24-7.2-40-42.32-40-43.84c-0.619-4.418-4.702-7.499-9.12-6.88
			c-4.418,0.619-7.499,4.702-6.88,9.12c0,1.92,7.28,48,52.56,57.2h1.68c4.418,0.442,8.358-2.782,8.8-7.2
			S124.297,386.012,119.879,385.57z"/>
	</g>
</g>
<g>
</g>
<g>
</g>
<g>
</g>
<g>
</g>
<g>
</g>
<g>
</g>
<g>
</g>
<g>
</g>
<g>
</g>
<g>
</g>
<g>
</g>
<g>
</g>
<g>
</g>
<g>
</g>
<g>
</g>
</svg>
