<svg xmlns="http://www.w3.org/2000/svg" viewBox="0 0 416.973 416.973" width="32" height="32"><path d="M356.407 416.973a8 8 0 000-16h-93.936l18.041-42.096c.896.088 1.797.146 2.704.146 1.106 0 2.219-.066 3.333-.199a27.598 27.598 0 0013.631-5.55l38.903-28.236c5.948-4.317 9.838-10.746 10.952-18.103 1.02-6.735-.492-13.685-4.147-19.368l13.712-10.259c11.777-8.814 14.578-25.227 6.713-37.403l13.71-10.257c5.94-4.445 9.797-10.957 10.86-18.337.807-5.606-.077-11.184-2.494-16.146l23.628-55.138a8 8 0 00-4.203-10.504 8 8 0 00-10.504 4.203L376.324 182.7a27.99 27.99 0 00-9.022-2.907 27.923 27.923 0 00-10.203.406l31.435-73.412a8 8 0 00-14.708-6.298l-31.446 73.437a27.924 27.924 0 00-6.772-7.714 27.98 27.98 0 00-8.324-4.526l20.986-48.975a8 8 0 00-14.707-6.301l-23.627 55.14c-12.472 3.971-20.807 16.37-19.202 29.838l2.029 17c-14.241 2.704-24.194 16.053-22.452 30.659l2.029 17.002c-14.241 2.704-24.193 16.052-22.451 30.658l5.699 47.756v-.001c.863 7.231 4.459 13.715 10.132 18.313l-20.656 48.199h-28.546v-118.5c7.023-1.991 12.882-6.534 16.522-12.839l24.047-41.651c3.709-6.425 4.689-13.93 2.759-21.132-1.761-6.573-5.753-12.146-11.319-15.891l8.563-14.83c7.353-12.739 3.463-28.928-8.561-37.023l8.561-14.828c6.78-11.746 4.002-26.424-5.895-34.986V29.301a8 8 0 00-16 0v53.283a28.015 28.015 0 00-9.436.881 27.93 27.93 0 00-9.241 4.407V8a8 8 0 00-16 0v79.874a28.03 28.03 0 00-18.678-5.287V29.301a8 8 0 00-16 0v59.993c-9.896 8.564-12.673 23.241-5.893 34.985l8.561 14.827c-12.025 8.095-15.915 24.284-8.561 37.024l8.562 14.83c-5.598 3.784-9.724 9.577-11.44 16.169-1.874 7.2-.832 14.642 2.935 20.954l24.603 41.218a27.598 27.598 0 0010.377 10.529 27.929 27.929 0 005.532 2.43v118.714h-28.609l-20.66-48.196c5.674-4.597 9.271-11.082 10.135-18.314l5.699-47.757c1.741-14.605-8.21-27.954-22.452-30.658l2.029-17.002c1.742-14.606-8.209-27.955-22.451-30.659l2.029-17.001c1.606-13.468-6.73-25.865-19.201-29.837l-23.628-55.141A8 8 0 1068.7 112.71l20.986 48.977a28.004 28.004 0 00-8.325 4.525 27.951 27.951 0 00-6.791 7.746l-31.424-73.466a7.998 7.998 0 00-10.501-4.209 7.999 7.999 0 00-4.209 10.501l31.399 73.405a27.94 27.94 0 00-10.166-.396 27.967 27.967 0 00-9.022 2.908l-20.986-48.976a8 8 0 00-14.707 6.301l23.629 55.145c-5.723 11.768-2.494 26.352 8.364 34.477l13.709 10.257c-7.864 12.175-5.063 28.588 6.714 37.403l13.712 10.258c-3.655 5.684-5.167 12.634-4.146 19.369 1.114 7.357 5.003 13.785 10.951 18.102l38.902 28.235a27.597 27.597 0 0013.632 5.551c1.115.133 2.228.199 3.334.199a27.9 27.9 0 002.701-.145l18.045 42.096H60.566a8 8 0 000 16h295.841zm-147.57-216.848l-.319.553-.319-.553a27.716 27.716 0 00-6.439-7.592l20.935-36.261c1.573-2.724 4.132-4.678 7.207-5.501 3.074-.824 6.268-.412 8.99 1.161 5.663 3.27 7.61 10.537 4.342 16.198l-10.438 18.078a28.151 28.151 0 00-7.037.96c-7.204 1.931-13.213 6.532-16.922 12.957zm-35.032-31.993c-3.269-5.663-1.321-12.93 4.34-16.199 5.663-3.268 12.93-1.321 16.199 4.34l4.937 8.553-12.431 21.531c-.87-.09-1.74-.14-2.608-.148l-10.437-18.077zM229.9 98.92c3.073-.824 6.267-.412 8.992 1.162 5.662 3.269 7.61 10.536 4.341 16.198l-10.437 18.077a28.151 28.151 0 00-7.037.96c-7.203 1.93-13.212 6.531-16.921 12.956l-.319.552-.319-.553a27.694 27.694 0 00-6.441-7.59l20.935-36.261c1.573-2.723 4.132-4.677 7.206-5.501zm-35.553 5.507l4.939 8.538-12.434 21.536a28.023 28.023 0 00-2.61-.143l-10.438-18.078c-3.269-5.663-1.321-12.929 4.341-16.198 5.663-3.27 12.929-1.323 16.202 4.345zm-21.792 106.732c.819-3.147 2.804-5.766 5.589-7.374 2.726-1.573 5.918-1.986 8.993-1.162 3.074.824 5.632 2.777 7.206 5.502l4.938 8.551-13.497 23.375-12.039-20.169c-1.554-2.602-1.977-5.7-1.19-8.723zm26.361 50.894l-.127-.212a12.046 12.046 0 01-1.306-3.074c-.824-3.074-.412-6.267 1.161-8.991l24.049-41.651c1.573-2.724 4.131-4.677 7.206-5.501a12.071 12.071 0 013.123-.415c2.048 0 4.062.533 5.869 1.576 2.724 1.573 4.678 4.132 5.502 7.207.824 3.074.411 6.267-1.161 8.991l-24.047 41.651c-1.573 2.724-4.132 4.678-7.206 5.502a12.027 12.027 0 01-3.428.408l-.031-.002-.03.002a11.706 11.706 0 01-5.502-1.57 11.706 11.706 0 01-4.072-3.921zm-68.144-24.902l-2.474 20.729c-8.76 3.833-15.328 12.067-16.54 22.227l-.076.634-.511-.382a27.714 27.714 0 00-8.91-4.441l4.96-41.575c.775-6.493 6.69-11.142 13.18-10.371 6.494.774 11.146 6.687 10.371 13.179zm-39.515-58.365c2.501-1.968 5.596-2.849 8.723-2.474 6.493.774 11.145 6.686 10.371 13.178l-2.474 20.729c-8.758 3.833-15.327 12.067-16.541 22.226l-.076.634-.511-.382a27.687 27.687 0 00-8.91-4.441l4.961-41.575c.374-3.123 1.956-5.927 4.457-7.895zm-47.112 21.452c1.884-2.519 4.656-4.156 7.806-4.609 3.152-.454 6.273.334 8.739 2.179l7.948 6.049-2.934 24.589c-.831.26-1.65.559-2.455.897l-16.714-12.505c-5.236-3.918-6.308-11.363-2.39-16.6zm20.422 47.66c3.918-5.234 11.362-6.308 16.598-2.391l7.907 5.916-2.946 24.687c-.835.26-1.654.556-2.455.891l-16.713-12.503c-5.235-3.918-6.307-11.365-2.391-16.6zm18.189 56.642c-.487-3.215.306-6.404 2.234-8.981 1.884-2.519 4.657-4.156 7.807-4.609 3.149-.455 6.272.334 8.792 2.219l7.906 5.915-3.198 26.802-19.011-13.798c-2.454-1.78-4.062-4.461-4.53-7.548zm44.275 36.395l-.194-.141a12.007 12.007 0 01-2.414-2.314c-1.968-2.501-2.847-5.599-2.474-8.722l5.699-47.756c.717-6.017 5.849-10.453 11.766-10.453.466 0 .938.028 1.412.084 6.493.775 11.146 6.687 10.371 13.178l-5.699 47.756c-.373 3.124-1.955 5.928-4.456 7.896a12.008 12.008 0 01-2.999 1.728l-.029.011-.021.01c-1.79.701-3.727.955-5.674.723a11.679 11.679 0 01-5.288-2zm189.962-164.622c3.12-.375 6.221.505 8.722 2.474 2.501 1.968 4.083 4.771 4.456 7.895l4.96 41.575a27.714 27.714 0 00-8.91 4.441l-.51.382-.076-.634c-1.213-10.158-7.782-18.392-16.539-22.225l-2.474-20.728c-.774-6.494 3.878-12.407 10.371-13.18zm-20.423 47.659a11.83 11.83 0 013.558.112c.06.013.119.031.18.042 4.886.985 8.819 5.004 9.441 10.215l4.961 41.576a27.704 27.704 0 00-8.91 4.441l-.51.382-.076-.633c-1.211-10.16-7.78-18.396-16.541-22.228l-2.473-20.727c-.774-6.493 3.878-12.406 10.37-13.18zM278.971 342.21l-.016-.008-.013-.005a12.016 12.016 0 01-3.01-1.734c-2.501-1.968-4.083-4.772-4.456-7.896l-5.699-47.756c-.774-6.492 3.878-12.403 10.369-13.178.475-.057.946-.084 1.413-.084 5.917 0 11.049 4.437 11.767 10.454l5.698 47.757c.373 3.123-.506 6.22-2.474 8.721a11.985 11.985 0 01-2.415 2.314l-.193.14a11.709 11.709 0 01-5.288 2.002 11.71 11.71 0 01-5.683-.727zm55.245-37.671c-.468 3.088-2.076 5.769-4.53 7.549l-19.01 13.798-3.198-26.801 7.907-5.916c2.52-1.885 5.641-2.674 8.791-2.219 3.15.454 5.922 2.091 7.807 4.61 1.927 2.575 2.72 5.764 2.233 8.979zm15.799-40.042l-16.714 12.505a27.709 27.709 0 00-2.455-.891l-2.946-24.687 7.906-5.916c2.519-1.885 5.639-2.674 8.791-2.219 3.15.454 5.922 2.09 7.807 4.609 3.918 5.236 2.846 12.682-2.389 16.599zm25.032-55.467c-.454 3.15-2.091 5.923-4.609 7.807l-16.713 12.504a27.635 27.635 0 00-2.457-.891l-2.941-24.647 7.903-5.956c2.519-1.884 5.639-2.671 8.791-2.219 3.15.454 5.922 2.091 7.807 4.611 1.885 2.519 2.673 5.64 2.219 8.791z" fill="#FFF"/></svg>