<?xml version="1.0" encoding="iso-8859-1"?>
<!-- Generator: Adobe Illustrator 19.0.0, SVG Export Plug-In . SVG Version: 6.00 Build 0)  -->
<svg version="1.1" id="Capa_1" xmlns="http://www.w3.org/2000/svg" xmlns:xlink="http://www.w3.org/1999/xlink" x="0px" y="0px"
	 viewBox="0 0 368 368" style="enable-background:new 0 0 368 368;" xml:space="preserve">
<g>
	<g>
		<path d="M200,0h-96c-4.424,0-8,3.584-8,8v256c0,22.056,17.944,40,40,40h40v56c0,4.424,3.576,8,8,8s8-3.584,8-8v-56h40
			c22.056,0,40-17.944,40-40V72C272,32.304,239.704,0,200,0z M256,264c0,13.232-10.768,24-24,24h-40v-36.688l29.656-29.656
			c3.128-3.128,3.128-8.184,0-11.312c-3.128-3.128-8.184-3.128-11.312,0L192,228.688v-41.376l29.656-29.656
			c3.128-3.128,3.128-8.184,0-11.312s-8.184-3.128-11.312,0L192,164.688v-41.376l29.656-29.656c3.128-3.128,3.128-8.184,0-11.312
			s-8.184-3.128-11.312,0L192,100.688V72c0-4.416-3.576-8-8-8s-8,3.584-8,8v28.688l-18.344-18.344
			c-3.128-3.128-8.184-3.128-11.312,0s-3.128,8.184,0,11.312L176,123.312v41.376l-18.344-18.344c-3.128-3.128-8.184-3.128-11.312,0
			s-3.128,8.184,0,11.312L176,187.312v41.376l-18.344-18.344c-3.128-3.128-8.184-3.128-11.312,0s-3.128,8.184,0,11.312L176,251.312
			V288h-40c-13.232,0-24-10.768-24-24V16h88c30.872,0,56,25.12,56,56V264z"/>
	</g>
</g>
<g>
</g>
<g>
</g>
<g>
</g>
<g>
</g>
<g>
</g>
<g>
</g>
<g>
</g>
<g>
</g>
<g>
</g>
<g>
</g>
<g>
</g>
<g>
</g>
<g>
</g>
<g>
</g>
<g>
</g>
</svg>
