<?xml version="1.0" encoding="iso-8859-1"?>
<!-- Generator: Adobe Illustrator 19.0.0, SVG Export Plug-In . SVG Version: 6.00 Build 0)  -->
<svg version="1.1" id="Layer_1" xmlns="http://www.w3.org/2000/svg" xmlns:xlink="http://www.w3.org/1999/xlink" x="0px" y="0px"
	 viewBox="0 0 512.001 512.001" style="enable-background:new 0 0 512.001 512.001;" xml:space="preserve">
<g>
	<g>
		<path d="M511.26,392.674c-4.28-15.551-25.68-22.763-48.729-16.42c-10.243,2.82-19.321,7.946-25.563,14.435
			c-3.629,3.774-6.162,7.907-7.507,12.11c-29.638-6.338-58.279-14.758-85.794-25.229c2.871-0.381,5.742-0.879,8.603-1.502
			c26.96-5.877,50.018-21.901,64.927-45.119c1.213-1.891,1.627-4.186,1.149-6.382c-0.479-2.195-1.811-4.11-3.7-5.325
			c-46.404-29.795-107.906-17.659-139.704,26.644c-14.185-7.771-27.992-16.161-41.397-25.162
			c-11.125-7.47-21.969-15.385-32.546-23.687c8.855-0.077,18.295-1.418,27.711-4.01c35.596-9.8,58.131-32.832,52.422-53.573
			c-2.956-10.738-12.825-18.414-27.786-21.613c-13.02-2.785-28.885-1.926-44.668,2.421c-3.868,1.064-7.696,2.331-11.385,3.768
			c-21.038,8.216-35.682,21.192-40.324,34.534c-18.843-18.304-36.561-38.064-53.042-59.192
			c-10.736-13.765-20.325-27.331-28.856-40.379c6.542,3.921,13.525,7.214,20.896,9.782c12.048,4.197,24.482,6.283,36.874,6.283
			c16.62,0,33.163-3.754,48.57-11.2l8.327-4.025c4.212-2.035,5.978-7.102,3.941-11.314l-4.025-8.328
			c-1.778-3.678-3.769-7.288-5.921-10.73c-2.48-3.967-7.707-5.173-11.674-2.693c-3.967,2.479-5.173,7.707-2.693,11.674
			c1.828,2.924,3.521,5.992,5.033,9.12l0.338,0.7l-0.699,0.338c-22.818,11.028-48.563,12.51-72.496,4.171
			c-20.113-7.007-36.898-20.261-48.296-37.851l65.423,22.825c0.924,0.322,1.865,0.474,2.791,0.474c3.503,0,6.78-2.189,8-5.683
			c1.541-4.418-0.791-9.249-5.208-10.79l-65.473-22.84c14.48-4.886,29.855-6.205,45.084-3.77
			c18.762,2.999,35.994,11.401,49.834,24.298c3.423,3.19,8.785,3.001,11.973-0.422c3.19-3.423,3.001-8.783-0.422-11.973
			c-16.311-15.2-36.613-25.101-58.711-28.633c-22.624-3.617-45.52-0.239-66.218,9.763l-4.042,1.953
			C22.6,61.469,16.722,42.805,16.573,42.324c-1.372-4.472-6.111-6.985-10.585-5.613c-4.473,1.374-6.985,6.113-5.613,10.585
			c0.965,3.142,24.379,77.921,89.763,161.949c4.86,6.246,9.827,12.375,14.895,18.388l-4.507,6.531
			c-16.964,24.584-23.339,54.302-17.951,83.681c5.389,29.379,21.895,54.9,46.478,71.863l7.612,5.252
			c1.424,0.983,3.105,1.499,4.812,1.499c0.509,0,1.021-0.046,1.528-0.139c2.211-0.406,4.168-1.672,5.444-3.522l5.251-7.612
			c16.964-24.584,23.339-54.302,17.951-83.681c-0.506-2.755-1.108-5.477-1.807-8.161c17.184,14.851,35.165,28.606,53.885,41.198
			c2.124,1.429,4.258,2.839,6.401,4.238c-26.29,45.718-13.49,104.911,30.673,135.385c1.424,0.983,3.105,1.499,4.813,1.499
			c0.508,0,1.02-0.046,1.528-0.139c2.209-0.406,4.168-1.672,5.444-3.522c22.014-31.903,23.409-72.009,7.107-104.414
			c19.956,10.265,40.604,19.366,61.889,27.29c-8.853,10.056-8.881,28.92,0.848,46.689c8.902,16.257,22.974,26.129,35.445,26.129
			c3.61,0,7.088-0.828,10.265-2.568c7.374-4.038,11.815-12.348,12.186-22.799c0.32-9-2.315-19.087-7.417-28.404
			c-0.569-1.04-1.168-2.056-1.785-3.053c14.571,4.012,29.397,7.515,44.469,10.492c0.553,0.11,1.106,0.163,1.65,0.163
			c3.965,0,7.506-2.796,8.302-6.832c0.264-1.337,0.19-2.66-0.15-3.89c0.002-0.002,0.005-0.005,0.006-0.007
			c1.528-1.646,0.814-5.294,3.77-8.368c4.1-4.262,10.607-7.85,17.849-9.845c15.116-4.159,26.617-0.066,27.895,4.581
			c1.281,4.653-6.503,14.065-21.616,18.225c-4.63,1.274-9.396,1.849-13.76,1.659c-4.68-0.198-8.628,3.424-8.83,8.098
			c-0.202,4.675,3.424,8.628,8.098,8.83c0.812,0.035,1.627,0.052,2.444,0.052c5.43,0,10.985-0.773,16.546-2.304
			C500.848,425.389,515.543,408.233,511.26,392.674z M139.759,375.565l-0.44,0.638l-0.638-0.44
			c-20.859-14.393-34.864-36.047-39.436-60.974c-3.859-21.036-0.582-42.266,9.177-60.92l13.111,68.763
			c0.774,4.06,4.326,6.887,8.312,6.887c0.526,0,1.06-0.05,1.596-0.151c4.596-0.877,7.611-5.312,6.734-9.908l-13.016-68.266
			c15.542,13.942,26.003,32.501,29.832,53.373C159.561,329.492,154.153,354.706,139.759,375.565z M237.264,233.193
			c4.49,0,8.728,0.403,12.538,1.218c8.228,1.76,13.833,5.327,14.993,9.542c2.237,8.124-9.837,21.068-29.991,29.167
			c-1.482-18.263-8.799-30.305-15.982-37.893C225.137,233.884,231.414,233.193,237.264,233.193z M172.581,269.341
			c-1.972-7.16,7.909-19.538,27.31-28.047c5.596,3.595,17.573,13.935,18.211,36.864c-11.005,2.286-21.867,2.572-30.527,0.719
			C179.345,277.116,173.74,273.552,172.581,269.341z M263.34,454.766c-26.782-22.922-36.358-59.81-25.373-92.351l9.623,50.467
			c0.774,4.06,4.326,6.887,8.312,6.887c0.525,0,1.061-0.05,1.596-0.151c4.596-0.877,7.612-5.312,6.736-9.909l-9.475-49.695
			C276.157,386.509,280.119,424.06,263.34,454.766z M305.022,357.761l33.541-7.558c4.565-1.029,7.431-5.562,6.402-10.126
			c-1.028-4.565-5.564-7.429-10.126-6.401l-32.781,7.387c10.832-9.472,23.934-16.12,38.383-19.27
			c19.603-4.275,39.636-1.685,57.297,7.266c-12.331,15.486-29.47,26.181-49.075,30.454
			C333.963,362.718,319.022,362.064,305.022,357.761z M380.009,450.272c-4.232,2.313-15.181-3.089-22.711-16.838
			c-7.527-13.748-6.185-25.887-1.953-28.205c1.972-1.08,5.343-0.429,9.019,1.742c5.094,3.008,10.084,8.51,13.69,15.098
			c3.607,6.586,5.555,13.755,5.345,19.666C383.251,446,381.983,449.191,380.009,450.272z"/>
	</g>
</g>
<g>
</g>
<g>
</g>
<g>
</g>
<g>
</g>
<g>
</g>
<g>
</g>
<g>
</g>
<g>
</g>
<g>
</g>
<g>
</g>
<g>
</g>
<g>
</g>
<g>
</g>
<g>
</g>
<g>
</g>
</svg>
