<?xml version="1.0" encoding="UTF-8" standalone="no"?>
<svg
   xmlns:dc="http://purl.org/dc/elements/1.1/"
   xmlns:cc="http://creativecommons.org/ns#"
   xmlns:rdf="http://www.w3.org/1999/02/22-rdf-syntax-ns#"
   xmlns:svg="http://www.w3.org/2000/svg"
   xmlns="http://www.w3.org/2000/svg"
   version="1.1"
   x="0px"
   y="0px"
   width="86px"
   height="86px"
   viewBox="0 0 86 86"
   enable-background="new 0 0 86 86"
   xml:space="preserve"
   id="svg25"><metadata
   id="metadata31"><rdf:RDF><cc:Work
       rdf:about=""><dc:format>image/svg+xml</dc:format><dc:type
         rdf:resource="http://purl.org/dc/dcmitype/StillImage" /><dc:title></dc:title></cc:Work></rdf:RDF></metadata><defs
   id="defs29"><linearGradient
     gradientTransform="matrix(0,0.73378154,0.73250291,0,-173.73489,-711.51944)"
     y2="252.46629"
     x2="1071.6023"
     y1="339.29901"
     x1="984.92108"
     gradientUnits="userSpaceOnUse"
     id="SVGID_1_-6"><stop
       id="stop3-7"
       style="stop-color:#47b531;stop-opacity:1"
       offset="0.0054" /><stop
       id="stop5-5"
       style="stop-color:#183c10;stop-opacity:1"
       offset="1" /></linearGradient></defs>
<g
   id="Layer_2"
   display="none">
</g>
<g
   id="Layer_1">
	
		<linearGradient
   id="SVGID_1_"
   gradientUnits="userSpaceOnUse"
   x1="984.9211"
   y1="339.299"
   x2="1071.6023"
   y2="252.4663"
   gradientTransform="matrix(0,0.9756,0.9739,0,-245.1601,-960.1721)">
		<stop
   offset="0.0054"
   style="stop-color:#40b72f;stop-opacity:1"
   id="stop3" />
		<stop
   offset="1"
   style="stop-color:#225115;stop-opacity:1"
   id="stop5" />
	</linearGradient>
	<path
   fill="url(#SVGID_1_)"
   d="M 0.3,84.277 V 43 C 0.3,19.417 19.418,0.3 43,0.3 h 41.277 c 0.786,0 1.423,0.637 1.423,1.423 V 43 C 85.7,66.583 66.582,85.7 43,85.7 H 1.723 C 0.937,85.7 0.3,85.063 0.3,84.277 Z"
   id="path8"
   style="fill:url(#SVGID_1_)" />
	<path
   style="fill:#6bae4b;stroke-width:0.752134;fill-opacity:0.60000002"
   id="path8-35"
   d="M 10.883895,74.045819 V 43 C 10.883895,25.262433 25.263186,10.883895 43,10.883895 h 31.04582 c 0.591177,0 1.070286,0.479109 1.070286,1.070286 V 43 C 75.116106,60.737567 60.736815,75.116105 43,75.116105 H 11.954181 c -0.591177,0 -1.070286,-0.479109 -1.070286,-1.070286 z"
   fill="url(#SVGID_1_)" />
	
<path
   d="m 39.375441,18.363581 c 0.237593,0.760302 0.807819,3.183759 1.283005,5.417141 l 0.902858,4.039096 0.04752,-3.944058 c 0.04751,-3.136239 0.190075,-3.89654 0.7603,-3.89654 0.570224,0 0.712782,0.712782 0.712782,3.563909 0,2.043306 0.190074,3.563907 0.475188,3.563907 0.285112,0 0.475187,-0.332632 0.475187,-0.712782 0,-0.38015 0.237593,-0.712781 0.522705,-0.712781 0.380152,0 0.47519,1.092931 0.332632,3.611427 -0.142556,1.948269 -0.09503,3.373832 0.09504,3.183757 0.142557,-0.190075 1.140452,-1.520601 2.138347,-2.898645 1.663155,-2.375938 6.272476,-6.272478 7.365408,-6.272478 1.14045,0 0.285113,1.425563 -2.661052,4.27669 -3.08872,3.041201 -5.274582,5.702252 -4.704356,5.702252 0.142556,0 1.378042,-0.855337 2.756087,-1.853232 3.183758,-2.423457 9.503754,-6.129921 11.024356,-6.510072 2.375938,-0.617744 1.092932,0.760301 -4.276691,4.324208 -2.993682,2.043307 -5.464658,3.753983 -5.464658,3.84902 0,0.09504 0.570225,-0.04752 1.283007,-0.33263 2.66105,-0.997895 8.648414,-2.185863 9.21864,-1.805714 0.427669,0.237594 0.190078,0.475188 -0.665259,0.712782 -0.760304,0.142555 -1.23549,0.380149 -1.092934,0.522706 0.09503,0.142557 1.948271,-0.142557 4.039094,-0.570225 4.039099,-0.807818 5.797293,-0.570225 3.801504,0.522707 -1.758192,0.997893 -8.695935,3.0412 -12.735032,3.753982 -7.69804,1.425563 -10.501647,2.280901 -10.78676,3.278796 -0.617745,1.995788 -5.892328,14.113074 -7.032777,16.15638 -0.665265,1.140452 -1.805715,2.993682 -2.613534,4.134133 -0.878373,1.150016 -1.056152,1.402327 -1.473082,2.566013 -0.717881,2.003679 -6.652627,6.652629 -9.313678,7.175336 -2.043307,0.380148 -2.993683,-0.760302 -1.90075,-2.375939 1.235488,-1.94827 3.706463,-3.991577 6.700146,-5.607213 3.326314,-1.758197 3.896539,-2.37594 6.177439,-6.652628 1.853233,-3.468871 6.890221,-15.728715 6.890221,-16.774127 0,-0.617745 -5.179545,-2.851127 -10.454128,-4.466765 -1.710676,-0.522706 -3.516389,-1.283007 -4.039096,-1.663156 -0.902856,-0.712782 -0.855338,-0.712782 0.950376,-0.760301 1.758194,0 5.46466,0.807819 7.507965,1.663158 1.425564,0.570224 0.855338,-0.475188 -0.712781,-1.378045 -3.753983,-2.138344 -4.134134,-3.706464 -0.570226,-2.138344 l 2.185863,0.902856 -1.568118,-2.043307 c -0.90286,-1.140451 -2.613537,-3.373832 -3.896542,-4.894434 -1.710677,-2.138344 -2.043309,-2.851125 -1.473083,-2.946163 0.997894,-0.237594 2.851126,1.56812 6.747666,6.415034 1.710675,2.185864 3.136239,3.944057 3.231276,3.944057 0.04751,0 -0.237595,-1.330525 -0.617744,-2.993683 -0.760301,-3.088719 -1.473083,-9.408716 -1.187969,-10.311571 0.332631,-0.902858 1.235488,-0.237593 1.615638,1.235486 z"
   id="path8-3"
   style="fill:#ffffff;stroke-width:0.0475186" /></g>
</svg>
