<?xml version="1.0" encoding="UTF-8" standalone="no"?>
<svg width="25" height="22" fill="none" viewBox="0 0 25 25" xmlns="http://www.w3.org/2000/svg">
  <path fill="#17D1C6" d="M13.462 7.626H7.816L6.05 4.606h9.178L17.902 0H2.732a2.73 2.73 0 0 0-2.36 1.354 2.652 2.652 0 0 0 0 2.707l9.673 16.606c.76 1.288 2.443 1.717 3.747.958a2.86 2.86 0 0 0 .974-.958l.313-.545-4.44-7.659 2.823-4.837Z"/>
  <path fill="#17D1C6" d="M24.473 1.354A2.71 2.71 0 0 0 22.112 0h-.66l-7.264 12.463 2.675 4.606 7.61-13.041a2.67 2.67 0 0 0 0-2.674Z"/>
</svg>
