<?xml version="1.0" encoding="UTF-8" standalone="no"?>
<svg
   width="25"
   height="22"
   fill="none"
   version="1.1"
   id="svg8"
   sodipodi:docname="flaticon-color-negative.svg"
   inkscape:export-filename="flaticon-color-negative.svg"
   inkscape:export-xdpi="14.367347"
   inkscape:export-ydpi="14.367347"
   inkscape:version="1.2.2 (1:1.2.2+202212051552+b0a8486541)"
   xmlns:inkscape="http://www.inkscape.org/namespaces/inkscape"
   xmlns:sodipodi="http://sodipodi.sourceforge.net/DTD/sodipodi-0.dtd"
   xmlns="http://www.w3.org/2000/svg"
   xmlns:svg="http://www.w3.org/2000/svg">
  <defs
     id="defs12" />
  <sodipodi:namedview
     id="namedview10"
     pagecolor="#ffffff"
     bordercolor="#000000"
     borderopacity="0.25"
     inkscape:showpageshadow="2"
     inkscape:pageopacity="0.0"
     inkscape:pagecheckerboard="0"
     inkscape:deskcolor="#d1d1d1"
     showgrid="false"
     inkscape:zoom="4.3435374"
     inkscape:cx="40.059514"
     inkscape:cy="43.16758"
     inkscape:window-width="1920"
     inkscape:window-height="1128"
     inkscape:window-x="0"
     inkscape:window-y="0"
     inkscape:window-maximized="1"
     inkscape:current-layer="svg8" />
  <path
     fill="#17D1C6"
     d="M13.462 7.626H7.816L6.05 4.606h9.178L17.902 0H2.732a2.73 2.73 0 0 0-2.36 1.354 2.652 2.652 0 0 0 0 2.707l9.673 16.606c.76 1.288 2.443 1.717 3.747.958a2.86 2.86 0 0 0 .974-.958l.313-.545-4.44-7.659 2.823-4.837Z"
     id="path2" />
  <path
     fill="#17D1C6"
     d="M24.473 1.354A2.71 2.71 0 0 0 22.112 0h-.66l-7.264 12.463 2.675 4.606 7.61-13.041a2.67 2.67 0 0 0 0-2.674Z"
     id="path4" />
</svg>
