<?xml version="1.0" encoding="iso-8859-1"?>
<!-- Generator: Adobe Illustrator 19.0.0, SVG Export Plug-In . SVG Version: 6.00 Build 0)  -->
<svg xmlns="http://www.w3.org/2000/svg" xmlns:xlink="http://www.w3.org/1999/xlink" version="1.1" id="Capa_1" x="0px" y="0px" viewBox="0 0 512.001 512.001" style="enable-background:new 0 0 512.001 512.001;" xml:space="preserve" width="32px" height="32px">
<g>
	<g>
		<path d="M495.455,0.094l-27.187,2.813c-33.974,3.515-64.809,24.014-83.967,51.944c-5.488-12.296-13.97-25.298-26.847-38.174    c-5.854-5.854-15.355-5.857-21.212,0l-21.211,21.212c-39.254,39.254-40.961,101.742-5.118,142.991l-22.489,22.488    c0.009-20.791-6.448-51.049-36.03-80.631c-5.858-5.858-15.354-5.858-21.212,0l-21.212,21.212    c-39.152,39.152-40.855,101.784-5.117,142.984l-22.431,22.43c0.023-26.709-10.637-55.115-36.088-80.566    c-5.857-5.858-15.353-5.858-21.212,0l-21.212,21.212c-39.151,39.151-40.855,101.78-5.121,142.981L4.393,486.382    c-5.858,5.858-5.858,15.354,0,21.212c5.858,5.859,15.355,5.858,21.212,0.001l93.398-93.391    c41.238,35.785,103.871,34.026,142.999-5.103l21.212-21.212c5.858-5.858,5.858-15.354,0-21.212    c-29.591-29.591-59.847-36.042-80.65-36.029l22.499-22.497c41.185,35.794,103.685,34.205,142.999-5.11l21.212-21.212    c5.858-5.858,5.858-15.354,0-21.212c-25.457-25.457-53.87-36.116-80.584-36.088l22.437-22.435    c41.183,35.789,103.681,34.201,142.995-5.114l21.212-21.212c5.858-5.858,5.858-15.354,0-21.212    c-12.205-12.206-25.092-21.01-38.144-26.867c28.048-19.25,48.417-50.127,51.915-83.947l2.813-27.187    C512.897,7.091,504.911-0.884,495.455,0.094z M119.076,371.707c-24.082-29.428-22.401-73.036,5.047-100.484l9.918-9.919    c28.135,36.888,18.661,76.423-4.211,99.649L119.076,371.707z M250.7,377.979l-9.91,9.911    c-27.453,27.452-71.065,29.129-100.495,5.04c10.739-10.739,28.235-31.63,60.963-32.27    C218.462,360.324,235.311,366.27,250.7,377.979z M225.139,265.651c-24.084-29.429-22.404-73.04,5.045-100.489l9.91-9.91    c26.591,34.946,20.509,74.75-4.416,99.861L225.139,265.651z M356.769,271.911l-9.917,9.917    c-27.96,27.959-71.564,28.781-100.498,5.043l10.345-10.345C279.868,253.358,319.661,243.607,356.769,271.911z M331.201,159.598    c-23.751-28.949-22.902-72.551,5.044-100.496l9.909-9.91c26.65,35.024,20.477,74.945-4.576,100.029L331.201,159.598z     M462.829,165.85l-9.917,9.917c-27.958,27.958-71.562,28.782-100.498,5.043l10.345-10.345    C385.928,147.297,425.721,137.547,462.829,165.85z M479.267,40.657c-3.961,38.287-38.331,72.658-76.619,76.619l-8.823,0.913    l0.913-8.824c3.961-38.287,38.331-72.658,76.619-76.619l8.824-0.913L479.267,40.657z" fill="#FFFFFF"/>
	</g>
</g>
<g>
</g>
<g>
</g>
<g>
</g>
<g>
</g>
<g>
</g>
<g>
</g>
<g>
</g>
<g>
</g>
<g>
</g>
<g>
</g>
<g>
</g>
<g>
</g>
<g>
</g>
<g>
</g>
<g>
</g>
</svg>
