<?xml version="1.0" encoding="iso-8859-1"?>
<!-- Generator: Adobe Illustrator 17.1.0, SVG Export Plug-In . SVG Version: 6.00 Build 0)  -->
<!DOCTYPE svg PUBLIC "-//W3C//DTD SVG 1.1//EN" "http://www.w3.org/Graphics/SVG/1.1/DTD/svg11.dtd">
<svg xmlns="http://www.w3.org/2000/svg" xmlns:xlink="http://www.w3.org/1999/xlink" version="1.1" id="Capa_1" x="0px" y="0px" viewBox="0 0 471.898 471.898" style="enable-background:new 0 0 471.898 471.898;" xml:space="preserve" width="32px" height="32px">
<path id="XMLID_478_" d="M323.405,307.163c-0.397-1.88-1.107-3.6-2.125-5.14c-2.318-3.516-5.99-5.731-10.617-6.407  c-6.387-0.93-14.581,1.265-22.969,5.912c-1.752-6.199-4.86-11.496-9.148-15.408c-5.238-4.778-11.76-7.083-18.866-6.655  c-3.026,0.181-6.055,0.859-9.032,2.019c-3.095-0.798-6.182-1.11-9.212-0.929c-7.812,0.466-14.682,4.239-19.346,10.624  c-6.293,8.616-8.021,20.947-4.739,33.832c1.444,5.672,3.788,11.062,6.791,15.906l-18.922,15.463v-82.573  c0.031-0.282,0-2.225,0-2.225c1.251,0.102,2.512,0.158,3.781,0.158c15.32,0,31.653-7.19,42.869-15.845  c12.597-9.721,19.581-21.59,19.163-32.564c-0.105-2.77-1.956-5.168-4.609-5.973c-3.606-1.094-7.523-1.638-11.624-1.678  c0.634-4.767,0.713-9.621,0.134-13.55c-0.404-2.742-2.504-4.927-5.229-5.439c-8.972-1.689-18.756,1.597-28.289,9.503  c-6.085,5.046-11.619,11.561-16.196,18.723v-29.908c9.227-0.602,19.376-5.408,28.871-13.854  c13.749-12.231,26.688-33.202,24.603-52.482c-0.298-2.756-2.312-5.021-5.015-5.638c-10.471-2.391-22.631,1.671-34.252,11.435  c-5.386,4.525-10.188,9.861-14.207,15.596v-19.992c9.59-2.588,19.075-10.333,26.72-22.049  c10.006-15.334,16.986-38.757,10.025-56.521c-1.011-2.583-3.576-4.232-6.319-4.124c-4.949,0.204-9.864,1.818-14.578,4.711  c0.919-17.296-3.641-38.054-16.575-50.307c-2.013-1.906-5.015-2.329-7.473-1.046c-9.888,5.149-16.541,16.61-18.735,32.273  c-2.438,17.403,1.024,40.551,13.936,54.658v49.075c-8.072-11.279-18.72-19.627-30.479-20.418c-2.774-0.186-5.347,1.403-6.425,3.957  c-1.697,4.019-2.786,8.45-3.272,13.239c-4.517-1.173-9.075-1.743-13.567-1.559c-2.771,0.114-5.163,1.973-5.959,4.629  c-3.445,11.5,0.73,26.014,11.457,39.821c10.929,14.068,29.444,27.929,48.245,30.122v28.875c-3.462-4.788-7.488-9.037-11.942-12.437  c-7.043-5.376-14.682-8.261-22.16-8.494c-0.148-0.197-0.295-0.405-0.444-0.596c-7.647-9.878-17.586-16.051-26.586-16.513  c-5.505-0.276-10.486,1.616-14.036,5.34c-1.406,1.474-2.56,3.188-3.448,5.119c-1.886,0.98-3.542,2.213-4.946,3.687  c-3.551,3.727-5.206,8.798-4.66,14.279c0.895,8.967,7.538,18.598,17.773,25.764c0.214,0.15,0.44,0.294,0.658,0.442  c0.852,9.624,6.261,19.246,15.615,27.323c12.6,10.879,29.422,16.919,45.081,16.919c3.09,0,6.136-0.236,9.095-0.716v82.579  c-0.046,0.892,0,11.328,0,11.328l-3.943-4.653c0-0.57-0.011-1.142-0.047-1.717c-0.489-7.696-4.254-15.489-10.525-22.048  c1.604-2.423,3.042-4.989,4.282-7.676c5.569-12.073,6.112-24.513,1.489-34.13c-3.426-7.126-9.496-12.085-17.093-13.963  c-2.946-0.729-6.036-0.982-9.227-0.761c-2.716-1.682-5.571-2.898-8.515-3.626c-7.191-1.781-14.536-0.461-20.684,3.714  c-5.365,3.643-9.602,9.29-12.301,16.165c-7.769-6.674-15.807-10.579-22.648-10.779c-4.627-0.129-8.555,1.378-11.44,4.377  c-1.279,1.331-2.289,2.893-3.021,4.667c-1.747,0.802-3.269,1.872-4.546,3.202c-2.92,3.035-4.275,7.103-3.918,11.765  c0.493,6.437,4.434,13.948,10.812,21.11c-5.661,3.071-10.145,7.266-13.02,12.309c-3.511,6.16-4.323,13.029-2.35,19.865  c0.842,2.914,2.169,5.72,3.956,8.371c-0.099,3.198,0.275,6.28,1.117,9.192c2.172,7.518,7.362,13.391,14.616,16.537  c3.983,1.729,8.4,2.583,13.037,2.583c6.757,0,13.981-1.816,21.007-5.394c2.625-1.336,5.131-2.879,7.491-4.59  c6.802,6.021,14.741,9.487,22.457,9.677c0.222,0.005,0.443,0.008,0.664,0.008c0.352,0,0.702-0.012,1.052-0.026l13.085,10.243  c4.478,3.504,10.049,5.344,15.764,5.344c2.441,0,4.911-0.336,7.331-1.022c1.784-0.428,3.497-1.095,5.118-1.954v27.617  c-0.09,10.373,8.827,8.956,11.659,5.535l43.779-57.126c2.184-2.849,1.644-6.929-1.205-9.113c-2.85-2.184-6.93-1.643-9.113,1.206  l-32.12,41.913v-44.936c0.206,0.099,0.406,0.208,0.615,0.301c3.747,1.851,7.801,2.777,11.814,2.777  c4.053,0,8.064-0.944,11.678-2.832l25.854-13.506c3.274,4.632,7.319,8.887,12.003,12.474c8.285,6.346,17.469,9.722,26.063,9.721  c2.356,0,4.67-0.254,6.907-0.77c7.704-1.776,13.874-6.608,17.374-13.605c1.359-2.717,2.288-5.679,2.771-8.835  c2.237-2.281,4.052-4.799,5.407-7.512c3.502-6.999,3.67-14.835,0.473-22.067c-2.506-5.668-6.878-10.621-12.604-14.489  c8.208-6.11,13.779-13.089,15.476-19.715c1.142-4.458,0.534-8.649-1.757-12.123C326.277,309.595,324.975,308.267,323.405,307.163z   M162.656,400.946c-0.898,2.278-2.113,4.223-3.609,5.78c-2.583,2.685-5.789,3.992-9.521,3.907  c-4.313-0.106-8.908-2.074-13.128-5.527c4.195-4.837,7.448-10.247,9.451-15.811l2.751,2.647c1.593,1.532,4.125,1.484,5.656-0.109  c1.531-1.592,1.482-4.125-0.109-5.656l-3.987-3.836c6.829-2.002,13.427-5.945,19.112-11.303c3.583,4.069,5.71,8.562,5.982,12.847  c0.237,3.729-0.952,6.983-3.535,9.668c-1.492,1.551-3.388,2.839-5.634,3.828C164.516,398.072,163.285,399.352,162.656,400.946z   M83.37,331.214c0.301-0.313,0.947-0.59,1.772-0.759c2.637-0.542,4.667-2.653,5.104-5.309c0.137-0.831,0.39-1.488,0.69-1.801  c0.308-0.32,0.957-0.396,1.508-0.396c0.063,0,0.124,0.001,0.184,0.003c4.129,0.12,11.904,4.167,19.816,12.732  c-0.01,0.149,0.323,7.775,1.166,11.779l-5.6-3.934c-1.811-1.271-4.302-0.833-5.573,0.974c-1.27,1.808-0.834,4.303,0.974,5.572  l10.634,7.471l0.999,4.572c-4.763-1.042-10.085-3.321-15.452-7.416c-10.862-8.289-16.193-17.071-16.549-21.725  C82.998,332.375,83.016,331.582,83.37,331.214z M113.36,406.957c-8.259,4.205-16.848,5.126-22.973,2.47  c-3.737-1.622-6.193-4.387-7.301-8.221c-0.598-2.066-0.766-4.354-0.499-6.798c0.186-1.701-0.308-3.405-1.371-4.745  c-1.527-1.925-2.605-3.95-3.202-6.017c-0.991-3.433-0.604-6.738,1.154-9.822c2.236-3.923,6.55-7.166,12.068-9.16  c0.159,0.123,0.31,0.25,0.47,0.372c10.382,7.922,20.052,10.819,28.714,10.134c10.579-0.837,7.833-8.333,6.167-16.75  c-1.128-5.698-1.575-14.243-1.186-21.599c0.047-0.885,0.298-3.26,0.314-3.381c1.108-8.146,4.587-14.749,9.544-18.115  c3.142-2.134,6.592-2.758,10.26-1.85c2.091,0.517,4.154,1.515,6.133,2.965c1.381,1.013,3.104,1.438,4.801,1.187  c2.423-0.362,4.715-0.283,6.81,0.235c3.872,0.958,6.73,3.304,8.496,6.976c2.894,6.02,2.304,14.637-1.578,23.053  c-5.156,11.179-15.331,20.045-25.156,22.336l8.521-34.371c0.531-2.144-0.776-4.313-2.92-4.845c-2.146-0.532-4.313,0.776-4.846,2.92  l-10.092,40.712c-0.018,0.041-0.034,0.083-0.052,0.124l-31.957,19.708c-1.881,1.16-2.465,3.624-1.305,5.504  c0.756,1.226,2.066,1.901,3.408,1.901c0.716,0,1.441-0.192,2.096-0.596l25.529-15.744  C130.181,393.971,122.697,402.206,113.36,406.957z M191.576,417.398c-0.029,0.117-0.055,0.235-0.077,0.354  c-0.329,1.724-1.2,3.362-2.511,4.726l-0.363,0.377c-1.317,1.369-2.919,2.302-4.632,2.698c-0.117,0.027-0.233,0.058-0.349,0.091  c-4.067,1.182-8.521,0.405-11.626-2.026l-6.625-5.187c1.064-0.811,2.076-1.708,3.025-2.695c2.104-2.19,3.871-4.741,5.271-7.608  c2.815-1.512,5.297-3.375,7.399-5.562c0.948-0.986,1.807-2.029,2.575-3.123l5.438,6.418  C191.649,408.869,192.598,413.289,191.576,417.398z M257.303,228.784c-1.741,5.48-6.452,11.475-13.376,16.818  c-11.731,9.053-26.413,13.966-37.766,13.012c2.017-5.812,7.181-12.105,14.645-17.642  C232.453,232.333,246.392,227.792,257.303,228.784z M229.714,216.199c4.378-3.631,8.699-5.896,12.589-6.651  c-0.095,2.506-0.424,5.181-0.941,7.676c-6.866,1.585-13.87,4.362-20.535,8.213C223.584,221.949,226.579,218.798,229.714,216.199z   M227.788,144.421c6.265-5.264,12.571-8.364,17.999-8.952c-1.061,11.7-8.854,25.755-20.338,35.97  c-6.847,6.091-13.952,9.777-19.965,10.509C207.199,169.346,215.899,154.409,227.788,144.421z M231.277,61.448  c1.941,11.348-1.903,26.716-10.226,39.471c-4.823,7.392-10.423,12.745-15.833,15.345V88.611c3.992-2.934,7.33-7.038,9.907-12.135  C220.119,68.829,225.79,63.593,231.277,61.448z M191.157,34.812c1.2-8.565,4.004-15.38,7.919-19.508  c7.105,9.909,10.625,26.297,8.507,41.415c-0.734,5.235-2.069,9.812-3.889,13.527c-0.092,0.166-0.176,0.334-0.253,0.504  c-1.1,2.145-2.365,3.989-3.777,5.478C192.558,66.319,189.04,49.93,191.157,34.812z M165.682,130.403  c8.702,3.346,17.669,13.752,23.379,27.008c-6.825-7.622-15.242-14.342-24.29-18.968  C164.827,135.578,165.121,132.885,165.682,130.403z M154.24,168.435c-6.354-8.18-9.849-16.498-9.915-23.238  c3.494,0.454,7.043,1.468,10.55,2.912c0.574,0.363,1.203,0.643,1.874,0.813c16.899,7.734,32.396,25.276,35.469,39.849v4.612  C179.396,191.281,164.574,181.736,154.24,168.435z M192.219,272.343v9.072c-6.882-0.181-14.328-4.074-21.076-11.168  c-11.338-11.92-16.996-28.951-14.556-42.803c6.312-0.215,11.941,2.914,15.802,5.859  C183.557,241.829,191.613,257.769,192.219,272.343z M116.932,224.502c-0.229-2.296,0.538-3.395,1.135-4.021  c0.651-0.684,1.577-1.234,2.751-1.635c2.006-0.687,3.551-2.309,4.139-4.345c0.344-1.188,0.849-2.137,1.503-2.823  c0.597-0.627,1.646-1.442,3.961-1.328c3.446,0.177,9.171,2.671,14.837,8.942c-0.062,0.158-0.13,0.312-0.18,0.476  c-1.026,3.365-1.65,6.772-1.931,10.178l-8.631-8.571c-1.568-1.556-4.101-1.548-5.656,0.02c-1.557,1.568-1.548,4.101,0.02,5.657  l9.204,9.141c-3.893,0.439-7.61,1.27-11.04,2.5c-0.161,0.058-0.313,0.133-0.467,0.203  C120.043,233.537,117.274,227.936,116.932,224.502z M135.301,249.808c2.99-0.677,6.225-0.999,9.6-0.974  c2.972,11.462,9.069,21.931,16.083,29.571c-5.487-2.388-10.463-5.486-14.444-8.923C139.441,263.353,135.494,256.365,135.301,249.808  z M223.307,390.04c-3.495,1.825-8.016,1.78-11.798-0.119c-0.108-0.054-0.218-0.105-0.328-0.154c-1.611-0.7-3.017-1.908-4.066-3.5  l-0.279-0.421c-1.048-1.59-1.606-3.359-1.616-5.115v-2.093c0.237-3.607,1.884-7.011,4.52-9.165l22.491-18.378  c4.092,4.043,8.709,7.254,13.575,9.327c-0.034,5.342,1.073,10.859,3.174,16.207L223.307,390.04z M314.079,373.714  c-0.963,1.926-2.389,3.72-4.237,5.331c-1.292,1.125-2.087,2.715-2.213,4.423c-0.18,2.443-0.761,4.661-1.728,6.591  c-1.784,3.567-4.701,5.84-8.669,6.755c-6.51,1.501-14.786-0.968-22.145-6.604c-9.274-7.101-15.526-18.172-16.203-27.908  l32.678,14.407c0.524,0.231,1.072,0.341,1.611,0.341c1.536,0,3.002-0.891,3.662-2.387c0.892-2.021-0.025-4.383-2.047-5.274  l-36.072-15.904c-0.127-0.317-0.276-0.625-0.451-0.917l-5.679-36.649c0-2.209-1.791-4-4-4s-4,1.791-4,4l5.679,32.283  c-9.113-4.138-17.304-14.562-20.318-26.4c-2.287-8.981-1.301-17.563,2.64-22.956c2.402-3.29,5.641-5.078,9.623-5.316  c2.152-0.127,4.418,0.21,6.739,1.006c1.618,0.554,3.39,0.45,4.931-0.294c2.214-1.067,4.427-1.673,6.575-1.802  c3.552-0.21,6.706,0.892,9.329,3.284c3.335,3.042,5.552,7.964,6.284,13.786c-0.154,0.128-0.311,0.247-0.465,0.376  c-14.885,12.473-17.601,33.283-9.799,37.946c1.927,1.152,4.518,0.952,6.3-0.414c8.482-6.5,37.566,3.676,42.184,15.3  C315.793,366.505,315.866,370.143,314.079,373.714z M316.457,320.034c-1.025,4.002-6.681,10.698-16.775,16.535  c-0.128-0.037-1.655-0.473-1.655-0.473c-2.56-0.735-5.845-1.666-9.491-2.351l6.326-4.17c1.845-1.216,2.354-3.697,1.139-5.542  c-1.217-1.844-3.697-2.353-5.541-1.138l-15.471,10.198c-0.302,0.038-0.603,0.074-0.905,0.121c1.032-3.955,3.724-8.211,9.871-13.363  c10.472-8.775,20.224-12.051,24.829-11.372c0.598,0.087,1.367,0.28,1.647,0.705c0.239,0.363,0.367,1.052,0.351,1.891  c-0.053,2.695,1.563,5.144,4.062,6.155c0.777,0.314,1.362,0.704,1.602,1.067C316.717,318.709,316.601,319.469,316.457,320.034z   M406.031,211.334l-65.005,82.465c-1.282,1.627-3.187,2.477-5.108,2.477c-1.409,0-2.828-0.456-4.02-1.396  c-2.819-2.222-3.304-6.309-1.081-9.128l65.005-82.465c2.222-2.82,6.312-3.303,9.128-1.081  C407.769,204.428,408.254,208.514,406.031,211.334z M275.073,268.172c0-0.614,0.088-1.238,0.271-1.856l61.366-206.492  c1.023-3.441,4.595-5.233,8.082-4.379c5.169,1.266,4.563,7.464,4.379,8.082l-30.686,214.839c-0.452,3.252-3.237,5.607-6.431,5.607  c-0.298,0-0.599-0.021-0.901-0.063c-3.557-0.494-6.038-3.776-5.545-7.332l17.323-124.756l-35.126,118.197  c-0.839,2.823-3.426,4.65-6.228,4.65c-0.613,0-1.236-0.087-1.854-0.271C276.9,273.559,275.074,270.974,275.073,268.172z" fill="#FFFFFF"/>
<g>
</g>
<g>
</g>
<g>
</g>
<g>
</g>
<g>
</g>
<g>
</g>
<g>
</g>
<g>
</g>
<g>
</g>
<g>
</g>
<g>
</g>
<g>
</g>
<g>
</g>
<g>
</g>
<g>
</g>
</svg>
