<?xml version="1.0" encoding="iso-8859-1"?>
<!-- Generator: Adobe Illustrator 19.0.0, SVG Export Plug-In . SVG Version: 6.00 Build 0)  -->
<svg xmlns="http://www.w3.org/2000/svg" xmlns:xlink="http://www.w3.org/1999/xlink" version="1.1" id="Capa_1" x="0px" y="0px" viewBox="0 0 496.544 496.544" style="enable-background:new 0 0 496.544 496.544;" xml:space="preserve" width="32px" height="32px">
<g>
	<g>
		<g>
			<path d="M408.272,48h-38.56l8-48h-66.888l8,48h-38.552c-48.52,0-88,39.48-88,88v8h-14.56l8-48h-66.888l8,48H88.272     c-48.52,0-88,39.48-88,88v32c0,10.416,6.704,19.216,16,22.528v75.856c0,49.744,31.288,94.888,77.856,112.36l58.144,21.8     l58.144-21.808c41.288-15.488,70.512-52.744,76.624-95.664l57.232,21.472l58.144-21.808     c46.568-17.464,77.856-62.616,77.856-112.36V190.52c9.288-3.312,16-12.112,16-22.528v-32C496.272,87.472,456.792,48,408.272,48z      M358.824,16l-5.328,32h-18.448l-5.328-32H358.824z M166.824,112l-5.328,32h-18.448l-5.328-32H166.824z M272.272,362.376     c0,43.112-27.12,82.24-67.488,97.376l-52.512,19.696l-52.52-19.696c-40.36-15.128-67.48-54.264-67.48-97.376v-74.384h240V362.376     z M280.272,272h-256c-4.416,0-8-3.584-8-8v-32c0-39.704,32.296-72,72-72h128c39.704,0,72,32.296,72,72v32     C288.272,268.408,284.688,272,280.272,272z M480.272,168c0,4.416-3.584,8-8,8h-24v16h16v74.384     c0,43.112-27.12,82.24-67.488,97.376l-52.512,19.688l-52.52-19.696c-1.184-0.448-2.312-0.984-3.48-1.472v-75.76     c9.288-3.312,16-12.112,16-22.528v-32c0-14.408-3.552-27.984-9.712-40h137.712v-16H284.104c-5.04-6.088-10.912-11.448-17.392-16     h5.56v-16h-16v9.712c-12.016-6.168-25.592-9.712-40-9.712h-8v-8c0-39.704,32.296-72,72-72h128c39.704,0,72,32.296,72,72V168z" fill="#FFFFFF"/>
			<rect x="256.272" y="80" width="16" height="16" fill="#FFFFFF"/>
			<rect x="288.272" y="80" width="16" height="16" fill="#FFFFFF"/>
			<rect x="320.272" y="80" width="16" height="16" fill="#FFFFFF"/>
			<rect x="352.272" y="80" width="16" height="16" fill="#FFFFFF"/>
			<rect x="384.272" y="80" width="16" height="16" fill="#FFFFFF"/>
			<rect x="416.272" y="80" width="16" height="16" fill="#FFFFFF"/>
			<rect x="288.272" y="144" width="16" height="16" fill="#FFFFFF"/>
			<rect x="320.272" y="144" width="16" height="16" fill="#FFFFFF"/>
			<rect x="352.272" y="144" width="16" height="16" fill="#FFFFFF"/>
			<rect x="384.272" y="144" width="16" height="16" fill="#FFFFFF"/>
			<rect x="416.272" y="144" width="16" height="16" fill="#FFFFFF"/>
			<rect x="448.272" y="144" width="16" height="16" fill="#FFFFFF"/>
			<rect x="224.272" y="112" width="16" height="16" fill="#FFFFFF"/>
			<rect x="256.272" y="112" width="16" height="16" fill="#FFFFFF"/>
			<rect x="288.272" y="112" width="16" height="16" fill="#FFFFFF"/>
			<rect x="320.272" y="112" width="16" height="16" fill="#FFFFFF"/>
			<rect x="352.272" y="112" width="16" height="16" fill="#FFFFFF"/>
			<rect x="384.272" y="112" width="16" height="16" fill="#FFFFFF"/>
			<rect x="416.272" y="112" width="16" height="16" fill="#FFFFFF"/>
			<rect x="448.272" y="112" width="16" height="16" fill="#FFFFFF"/>
			<path d="M105.376,444.776l4.072,1.52l5.608-14.984l-4.064-1.52c-27.944-10.472-46.72-37.568-46.72-67.416v-2.384h-16v2.384     C48.272,398.856,71.216,431.976,105.376,444.776z" fill="#FFFFFF"/>
			<rect x="64.272" y="176" width="16" height="16" fill="#FFFFFF"/>
			<rect x="96.272" y="176" width="16" height="16" fill="#FFFFFF"/>
			<rect x="128.272" y="176" width="16" height="16" fill="#FFFFFF"/>
			<rect x="160.272" y="176" width="16" height="16" fill="#FFFFFF"/>
			<rect x="192.272" y="176" width="16" height="16" fill="#FFFFFF"/>
			<rect x="224.272" y="176" width="16" height="16" fill="#FFFFFF"/>
			<rect x="32.272" y="240" width="16" height="16" fill="#FFFFFF"/>
			<rect x="64.272" y="240" width="16" height="16" fill="#FFFFFF"/>
			<rect x="96.272" y="240" width="16" height="16" fill="#FFFFFF"/>
			<rect x="128.272" y="240" width="16" height="16" fill="#FFFFFF"/>
			<rect x="160.272" y="240" width="16" height="16" fill="#FFFFFF"/>
			<rect x="192.272" y="240" width="16" height="16" fill="#FFFFFF"/>
			<rect x="224.272" y="240" width="16" height="16" fill="#FFFFFF"/>
			<rect x="256.272" y="240" width="16" height="16" fill="#FFFFFF"/>
			<rect x="32.272" y="208" width="16" height="16" fill="#FFFFFF"/>
			<rect x="64.272" y="208" width="16" height="16" fill="#FFFFFF"/>
			<rect x="96.272" y="208" width="16" height="16" fill="#FFFFFF"/>
			<rect x="128.272" y="208" width="16" height="16" fill="#FFFFFF"/>
			<rect x="160.272" y="208" width="16" height="16" fill="#FFFFFF"/>
			<rect x="192.272" y="208" width="16" height="16" fill="#FFFFFF"/>
			<rect x="224.272" y="208" width="16" height="16" fill="#FFFFFF"/>
			<rect x="256.272" y="208" width="16" height="16" fill="#FFFFFF"/>
			<rect x="48.272" y="328" width="16" height="16" fill="#FFFFFF"/>
		</g>
	</g>
</g>
<g>
</g>
<g>
</g>
<g>
</g>
<g>
</g>
<g>
</g>
<g>
</g>
<g>
</g>
<g>
</g>
<g>
</g>
<g>
</g>
<g>
</g>
<g>
</g>
<g>
</g>
<g>
</g>
<g>
</g>
</svg>
